<?xml version="1.0" encoding="utf-8"?>
<!-- Generator: Adobe Illustrator 25.4.1, SVG Export Plug-In . SVG Version: 6.00 Build 0)  -->
<!DOCTYPE svg PUBLIC "-//W3C//DTD SVG 1.1//EN" "http://www.w3.org/Graphics/SVG/1.1/DTD/svg11.dtd" [
	<!ENTITY ns_extend "http://ns.adobe.com/Extensibility/1.0/">
	<!ENTITY ns_ai "http://ns.adobe.com/AdobeIllustrator/10.0/">
	<!ENTITY ns_graphs "http://ns.adobe.com/Graphs/1.0/">
	<!ENTITY ns_vars "http://ns.adobe.com/Variables/1.0/">
	<!ENTITY ns_imrep "http://ns.adobe.com/ImageReplacement/1.0/">
	<!ENTITY ns_sfw "http://ns.adobe.com/SaveForWeb/1.0/">
	<!ENTITY ns_custom "http://ns.adobe.com/GenericCustomNamespace/1.0/">
	<!ENTITY ns_adobe_xpath "http://ns.adobe.com/XPath/1.0/">
]>
<svg version="1.1" xmlns:x="&ns_extend;" xmlns:i="&ns_ai;" xmlns:graph="&ns_graphs;"
	 xmlns="http://www.w3.org/2000/svg" xmlns:xlink="http://www.w3.org/1999/xlink" x="0px" y="0px" viewBox="0 0 384.98 332.29"
	 style="enable-background:new 0 0 384.98 332.29;" xml:space="preserve">
<style type="text/css">
	.st0{display:none;}
	.st1{display:inline;}
	.st2{fill:#231F20;}
	.st3{opacity:0.42;fill:#6C40AA;}
	.st4{fill:#414042;}
	.st5{opacity:0.42;fill:#231F20;}
	.st6{fill:#A7A9AC;}
	.st7{fill:#6C40AA;}
	.st8{opacity:0.61;fill:#6C40AA;}
	.st9{fill:#D13B2B;}
	.st10{fill:#F6CA43;}
	.st11{fill:#00BFCA;}
	.st12{fill:#9FCC3B;}
	.st13{fill:#FAA53F;}
	.st14{fill:#8C5E44;}
	.st15{fill:none;stroke:#CB9B6B;stroke-miterlimit:10;}
</style>
<metadata><?xpacket begin="﻿" id="W5M0MpCehiHzreSzNTczkc9d"?>
<x:xmpmeta xmlns:x="adobe:ns:meta/" x:xmptk="Adobe XMP Core 7.0-c000 79.217bca6, 2021/06/14-18:28:11        ">
   <rdf:RDF xmlns:rdf="http://www.w3.org/1999/02/22-rdf-syntax-ns#">
      <rdf:Description rdf:about=""
            xmlns:dc="http://purl.org/dc/elements/1.1/"
            xmlns:xmp="http://ns.adobe.com/xap/1.0/"
            xmlns:xmpGImg="http://ns.adobe.com/xap/1.0/g/img/"
            xmlns:xmpMM="http://ns.adobe.com/xap/1.0/mm/"
            xmlns:stRef="http://ns.adobe.com/xap/1.0/sType/ResourceRef#"
            xmlns:stEvt="http://ns.adobe.com/xap/1.0/sType/ResourceEvent#"
            xmlns:illustrator="http://ns.adobe.com/illustrator/1.0/"
            xmlns:pdf="http://ns.adobe.com/pdf/1.3/"
            xmlns:xmpTPg="http://ns.adobe.com/xap/1.0/t/pg/"
            xmlns:stDim="http://ns.adobe.com/xap/1.0/sType/Dimensions#"
            xmlns:xmpG="http://ns.adobe.com/xap/1.0/g/">
         <dc:format>image/svg+xml</dc:format>
         <dc:title>
            <rdf:Alt>
               <rdf:li xml:lang="x-default">BR_nu_worldday_april_01</rdf:li>
            </rdf:Alt>
         </dc:title>
         <xmp:MetadataDate>2024-01-12T17:56:02+01:00</xmp:MetadataDate>
         <xmp:ModifyDate>2024-01-12T17:56:02+01:00</xmp:ModifyDate>
         <xmp:CreateDate>2024-01-12T17:55:55+01:00</xmp:CreateDate>
         <xmp:CreatorTool>Adobe Illustrator 25.4 (Macintosh)</xmp:CreatorTool>
         <xmp:Thumbnails>
            <rdf:Alt>
               <rdf:li rdf:parseType="Resource">
                  <xmpGImg:width>256</xmpGImg:width>
                  <xmpGImg:height>200</xmpGImg:height>
                  <xmpGImg:format>JPEG</xmpGImg:format>
                  <xmpGImg:image>/9j/4AAQSkZJRgABAgEASABIAAD/7QAsUGhvdG9zaG9wIDMuMAA4QklNA+0AAAAAABAASAAAAAEA&#xA;AQBIAAAAAQAB/+4ADkFkb2JlAGTAAAAAAf/bAIQABgQEBAUEBgUFBgkGBQYJCwgGBggLDAoKCwoK&#xA;DBAMDAwMDAwQDA4PEA8ODBMTFBQTExwbGxscHx8fHx8fHx8fHwEHBwcNDA0YEBAYGhURFRofHx8f&#xA;Hx8fHx8fHx8fHx8fHx8fHx8fHx8fHx8fHx8fHx8fHx8fHx8fHx8fHx8fHx8f/8AAEQgAyAEAAwER&#xA;AAIRAQMRAf/EAaIAAAAHAQEBAQEAAAAAAAAAAAQFAwIGAQAHCAkKCwEAAgIDAQEBAQEAAAAAAAAA&#xA;AQACAwQFBgcICQoLEAACAQMDAgQCBgcDBAIGAnMBAgMRBAAFIRIxQVEGE2EicYEUMpGhBxWxQiPB&#xA;UtHhMxZi8CRygvElQzRTkqKyY3PCNUQnk6OzNhdUZHTD0uIIJoMJChgZhJRFRqS0VtNVKBry4/PE&#xA;1OT0ZXWFlaW1xdXl9WZ2hpamtsbW5vY3R1dnd4eXp7fH1+f3OEhYaHiImKi4yNjo+Ck5SVlpeYmZ&#xA;qbnJ2en5KjpKWmp6ipqqusra6voRAAICAQIDBQUEBQYECAMDbQEAAhEDBCESMUEFURNhIgZxgZEy&#xA;obHwFMHR4SNCFVJicvEzJDRDghaSUyWiY7LCB3PSNeJEgxdUkwgJChgZJjZFGidkdFU38qOzwygp&#xA;0+PzhJSktMTU5PRldYWVpbXF1eX1RlZmdoaWprbG1ub2R1dnd4eXp7fH1+f3OEhYaHiImKi4yNjo&#xA;+DlJWWl5iZmpucnZ6fkqOkpaanqKmqq6ytrq+v/aAAwDAQACEQMRAD8A9U4q7FXYqtkljijaSVwk&#xA;airOxAAHuTgJpIFoQakZf944HuB2lP7uL/gm3Ye6g5DjvkLZ8FczTfparL9uaK3U/sxKZGH+zei/&#xA;8k8NSPWvx+OiLiPP8fjq79Ghv765uJT4+oY/+TPpjHg7yfx7l4+4D8e9v9EacftwCX/jKTJ9/Mtj&#xA;4ce5fEl3u/Q+k/8ALFb/APIpP6Y+HHuC+JLvLv0PpP8AyxW//IpP6Y+HHuC+JLvLv0Rpg+zbJH/x&#xA;jHD/AIjTHw49y+JLvd+i7cfYknQ9qTykD/Yliv4Y+GPP5r4h8vk19Su13jvpfZZFiZfwVG/4bHhP&#xA;evEO5x/TEfa3uP8Ag4P+q+Pq8j9n619PmPt/U46hLH/f2cyAdXQCZfoEZZ/+Fx4yOYK8F8iFSDUb&#xA;Gd/TjmUy9TETxkHzRqMPuwiYPVBgR0RGSYuxV2KuxV2KuxV2KuxV2KuxV2KuxV2KuxV2KuxV2Kux&#xA;VBzX0jytb2SCWZNpZGqIoz4MR1b/ACR9NMgZ70GYhtZbi02PmJbpzdTg1V5AOKn/ACE+yvz6+JxE&#xA;Op3Uz6DZF5Ng7FXYq7FXYq7FXYq7FXYq7FXYqpz29vOnCeJJU/ldQw+44DEHmkSI5If9GIn+8s8t&#xA;sf5Vbmny4Sc1A/1aZDw+40y8TvFtc9Vh+3HHdJ4xH0pKf6jllP8AwYxuQ801E+S6LVLRnEcjGCZt&#xA;limBjYn/ACa7N/sScIyD3IOM+9F5Ng7FXYq7FXYq7FXYq7FXYq7FXYq7FXYq7FUDcSzXc7Wls5jj&#xA;j2u7hdmFRX00P8xHU/sj3O1ZJJofFsAAFlFwwRQRLFCgSNBRVHQZMAAUGBJJsr8KHYq7FXYq7FXY&#xA;q7FXYq7FXYq7FXYq7FXYq7FVssUUqGOVFkjbZkYAgj3BwEWkGkJ+jTDvZTvb06RH95D/AMAx+Ef6&#xA;hXIcFcjTPjvmLd9duoNry3PH/f8Ab1kT6UpzX7iPfHiI5heEHkUVBcQTxiWCRZYz0dCCPvGTBB5M&#xA;CCOa/Ch2KuxV2KuxV2KuxV2KuxV2KoXUbp4IkSKn1m4cQ24IqOZBPIjwRQWPyyE5UNuZZwjZ35BV&#xA;tbaO2t0hjqVXqzbszE1ZmPcsTU5KMaFMZSs2q4UOxV2KuxV2KuxV2KuxV2KuxV2KuxV2KuxV2Kux&#xA;V2KuxV2KoWfTbeSQzJyguT1nhPFzTpy6q/yYHIGAO/IsxMjbmFnr39t/vRH9ZiH+74R8YH+VFvX/&#xA;AGBP+rgsjnumgeWyJt7m3uY/VgkWRK05Ka0I6g+BHhkxIHkwlEjmqYUOxV2KuxV2KuxV2KuxVKLV&#xA;/rvmG7loTDpqLbRHbiZZQJJiD7L6a/flQ3mfJtO0B5pvlrU7FXYq7FXYq7FXYq7FXYq7FXYq7FXY&#xA;q7FXYq7FXYq7FXYq7FXYq7FULcafDLJ60bNb3NKevFQMfZgaq49mByBgDvyLMTI25hT+u3Fr8N+g&#xA;9MdLyIH0/wDnou5j+e6+4wcRH1fNPCDy+SNVlZQykMrCoI3BByxrbxV2KuxV2KuxV2Ksd8iP6+ht&#xA;qBNTqV1c3fWtBJKwUfQqjKcO4J7yW/PtKu4BkWXNDsVdirsVdirsVdirsVdirsVdirsVdirsVdir&#xA;sVdirsVdirsVdirsVdirsVQLWEluxk09hHU1e1b+5cnrSlfTY+K7eIOV8FfS2cd/Uq2t9HOxidTD&#xA;coKyW7/aA8RTZl/yhhjO9urGUK9yJybF2KuxV2KuxViv5WureQdH4mvGJgfmJGyjT/QPx1cjVf3h&#xA;ZVl7juxV2KuxV2KuxV2KuxV2KuxV2KuxV2KuxV2KuxV2KuxV2KuxV2KuxV2KuxV2KqN1Zw3KgSVD&#xA;oaxSqaOjeKt2/wA65GUQWUZEKEN3NBKttfU5OaQ3IFEkPZT/ACv7d+3gIiRBosjEHcI3LGt2KuxV&#xA;2KsF/KOVYtG1DSCT6+lX88EiU+yvIhR/wpzH0/UdxcrVCyJd4Z1mQ4rsVdirsVdirsVdirsVdirs&#xA;VdirsVdirsVdirsVdirsVdirsVdirsVdirsVdirsVWTQxTxNFKgeNxRkbcEYCAdikEjcIKOaWxlS&#xA;3uWL2rkLb3LbkMdhHKfE/st36HfrAHh2PJmRxbjmmGWNbsVdirzmGQ+XPzangY8bDzLEssXXiLhf&#xA;hYbftFl/4bMU+nJ5Scz68XnF6NmU4bsVdirsVdirsVdirsVdirsVdirsVdirsVdirsVdirsVdirs&#xA;VdirsVdirsVdirsVdiq2WKOWNopVDxuCrowqCD1BGAi0g0g7WSS1nWyuGLo9fqczdWAFTGx/mUdP&#xA;Ee4OQiaNH4M5CxY+KOyxrdirCPza0Ke+8urqlmP9yGiP9chYdTGP75f+BAb/AGOUaiFx9zk6XJwy&#xA;o8iyDyn5gg1/QLTU4iC0qgTKP2ZF2YUHTxyeKfFG2vNj4JUm+WNTsVdirsVdirsVdirsVdirsVdi&#xA;rsVdirsVdirsVdirsVdirsVdirsVdirsVdirsVdiqjd2sdzA0TkrWhR1+0rDdWX3U75GUbFMoyo2&#xA;ssLmSaJkmAW5gb051HTkBUMP8lgQwwQlfPmmca5ckTk2DTKrKVYBlYUZTuCDiryzy7M3kXz3c+XL&#xA;luOh6u3r6Y7H4ULE0X2ofhP0HMOJ8OddC58x4uO/4g9UzMcB2KuxV2KuxV2KuxV2KuxV2KuxV2Ku&#xA;xV2KuxV2KuxV2KuxV2KuxV2KuxV2KuxV2KuxV2KoK5/cX8FwPsT/AOjz/i0TfQ1V/wBllctiD8Gy&#xA;O4I+KNyxrdirFvzE8oDzLoTRQUTVLMmfTpa0IkHVK+D0p86HtlWXHxBuwZeCXkhPyy85nXdLayvq&#xA;x61p37q7ifZ24njyIO9a7N75DBksUeYZ6nFwmxyLNMyHGdirsVdirsVdirsVdirsVdirsVdirsVd&#xA;irsVdirsVdirsVdirsVdirsVdirsVdirsVQmrimm3D94V9Zf9aI+ov4rkMn0lnj+oIvJsHYq7FXm&#xA;H5i+Xb/Q9Wj89eX0pNAQdWtl6OnQy0Hts/3/AM2YufGQeIObp8gkOCTOfK/mXT/MWkQ6jZts4pLF&#xA;WrRv3U5djyCQtxsuIwNFNssa3Yq7FXYq7FXYq7FXYq7FXYq7FXYq7FXYq7FXYq7FXYq7FXYq7FXY&#xA;q7FXYq7FXYqg9XNdPkiH2rikAp1/ekIT9AauQyfTXezx/VfcjMmwdirsVaZVdSjgMrAhlIqCD1BG&#xA;KvIda0/Uvy08wHW9JQzeV75wt3aV2hZj9n5fyN9B98OcTjPFHk7DHIZY8Mvqep6PrGn6vp8V/YSi&#xA;W3mFQR1B7qw7EZlQmJCw4U4GJoozJMHYq7FXYq7FXYq7FXYq7FXYq7FXYq7FXYq7FXYq7FXYq7FX&#xA;Yq7FXYq7FXYq7FUrspxqd6btKGwtWZLVxX95LuskgPTioqi+Pxe2VRPEb6BtkOEV1KaZa1OxV2Ku&#xA;xVSu7S2vLaW1uolmt5lKSxOKqynqCMBFpBINh5BdW+tfldrhurYPd+Ub2ShTc+kSfsN1ow/Zbv8A&#xA;eMw5ROI2OTsIyjmjR+p6vo+safrGnxX9hKJreUVBHUHurDsRmXCYkLDgzgYmijckwdirsVdirsVd&#xA;irsVdirsVdirsVdirsVdirsVdirsVdirsVdirsVdirsVS7V0muvS06JzGLmpuZF+0IEpzC+DOWC/&#xA;ST2yue/p72zHt6u770dDDFDCkMShIo1CRouwCgUAGTApgTa/Ch2KuxV2KuxVSu7S2vLaW1uolmt5&#xA;lKSxOKqynqCMBFpBINh5FqGkeYPyy1NtV0fne+Vp2/0q2Y1MNTsG/wCNX+g++HKBxm48nPjOOYcM&#xA;vqem+W/M+k+YdPW906UOuwljP20Y9mGZOPIJDZw8uIwNFNcsa3Yq7FXYq7FXYq7FXYq7FXYq7FXY&#xA;q7FXYq7FXYq7FXYq7FXYq7FXYqhOmr7/ALdv8H+wf4v+JrkP4vgz/h+KLybB2KuxV2KuxV2KuxVb&#xA;JHHLG0cih43BV0YAqVIoQQeoOKvKvMXkLXPKuot5j8kljDu15pIq3w9T6a/tr/k9R2r0GJkwmJ4o&#xA;udjziY4Zsq8j/mLpHme3WMMLbVFH76zY0JI6lK9RlmLOJbHm05tOYb8wy3L3HdirsVdirsVdirsV&#xA;dirsVdirsVdirsVdirTMqqWYhVUVZjsAB3OKsfvPzC8lWUxhuNXt1kXqFJcfegYZSc8B1bxp5nor&#xA;6d508qaiSLPVbeQjsXCE9tufGuEZoHqxlgmOYTrruMtanYq7FXYqgtTPoiK+HS1asv8AxhYUk+hd&#xA;n/2OV5Nt+5shvt3o3ruMsa3Yq7FXYq7FXYq7FXYq7FWA+d/yut9VuDrOhSDTdfQ+pzT4Y5mG/wAd&#xA;Pst/lD6Qcx8uAS3HNysOpMdjuEt8sfmje6fejQPOsDWWoRfCt2w2bsC1Kgg9mXr75CGcx2m2ZNMJ&#xA;Dig9OiljljWSJxJG4DI6kFSD0IIzKBtwiKXYUOxV2KuxV2KuxV2KuxV2KuxV2KuxVjOr6DN5luZI&#xA;by5kg0O3b0xbW7cHuJF+2ZHG6orfDQbkjt3olDjO/wBIciM/DG31FuH8tvIkMXpLotuVpSrgu3/B&#xA;OWb8cn4Ue5ic8+9KtV/JnyReqWtoJdOn6iW2kbY/6knNafIDIS08SzjqpjzY1No/5meRK3Gm3J13&#xA;RUq0kJDF1WtSWiJLD5oT9GUnHPH9PJvGTHl2kKLN/Jf5g6L5pt6W7ehfIP3to5+Ie6+Iy/FmEtur&#xA;jZtOYe5lGXNDsVcQCCCKg9RiqB08m3kfTnJPojlbMf2oSaAfND8J+g98rht6Wye/qR2WNbsVdirs&#xA;VdirsVdirsVdiqT+ZvKWh+ZLL6rqkAk419GdfhljJ7o38Oh75CcBIbtmPJKBsPNXh89flpMZImbW&#xA;fK/KrbEtEv8AlDcxn3Hw9PlmKYzx7jk5glDNz2k9D8q+d9B8y24ksJwLgCstq5pIp+Xce4zIx5hL&#xA;3uLlwShz5J/lrS7FXYq7FXYq7FXYq7FXYq7FXYqg9NPH6zbn7cM8hPuJmMqn/h6fRkIdR5/tZz6H&#xA;yRmTYOxV2KvNvzA/LyYTnzP5WH1XWbYma4t4vhE4XcsoH+7P+JfPrjZsN7jm5mDUV6ZcmS+QvN8P&#xA;mfQkvPsXcX7u8i22cd9uzZPDk4h5tWfFwS8mSZc0OxVC6hbySRrNBT61bnnDXYNtRkJ8HG349shO&#xA;N7jmGcDWx5FWtriO4gSeOvBxUA7EeII7EdDkomxbGQo0qYUOxV2KuxV2KuxV2KuxV2KuZVZSrAFS&#xA;KEHcEHFXnXmn8orS4uDqvlib9D6sp5iNKrA7A16LvGa+G3tmPk04O42Ll4tURtLcJbpP5oa75eu1&#xA;0jzxZSRSDaO+UA8gNuVR8LjpuD88rjmlDaTZLTxmLgXpum6rp2p2y3VhcJcwN0eM1677jqPpzKjM&#xA;SFhwpQMTRRWSYuxV2KuxV2KuxV2KuxV2KoK9ilimW+t1Lui8LiFeskVa7f5SEkr47jvlcgQbDZEg&#xA;iiioJ4Z4VmhYPG4qrDJggiwwIINFfhQ7FXYqwHQdM/Qv5o6ta24KWOqWa36xDZFkMnF6Dp9oMfau&#xA;Y0Rw5PeHLnLixC+YLPsyXEdirsVQUQFrqDwjaG7rLH4CUf3i/wCyHxf8FlY2lXe2HeN9yNyxrdir&#xA;sVdirsVdirsVdirsVdirsVQeq6PperWjWepW0d1bN1jkFaHxU9VPuN8Eog82UZGJsPNdR/K/zJ5d&#xA;um1LyNqD8QatpszAEjrxVj8DivZqfM5iy05BuJcyOpjIVMIrQPzjhS4/Rnmuzk0vUEoryspC18WQ&#xA;jkv0Yx1BG0giekveBt6NaXlpeQLcWkyTwv8AZkjIYfhmVGQIsOHKJBoq2FDsVdirsVdirsVdirsV&#xA;QctjLHK1xYuI5HNZYW/upD4mm6t/lD6QcrMaNhmJWKLS6rCnw3qNZv0rL/dk/wCTKPg37AkH2x8Q&#xA;ddk+Gem6MVldQykMp6EGoOWNay4ube3j9SeRYk/mYgb+AwGQHNIiTyS6ysjNrM2tOjRl4EtLdGBV&#xA;vSV2kLsp3HJm2B7DK4i5cTZI1Hh+Ka5a1OxV2KoPVhxtRcD7Vq6z18FU/vPvjLDIZOV9zPHzrvRm&#xA;TYOxV2KuxV2KuxV2KuxV2KuxV2KuxV2KpZr3lnQtetvq+q2cdygHwOwpIlf5HFGX6DkZQEubOGSU&#xA;eRedXX5Z+b/LNw195K1NpYRudOuGAYjrxBNI3+njmMcBibiXMGpjMVMInR/zlNrcjTvNunS6Zers&#xA;0vBgp7AlGoadTUbeGMdQRtIIlpAd4F6Jpmr6ZqluLjT7mO5iIB5RsDSvSo6j6cyYzEuThzgY8wi8&#xA;kxdirsVdirsVdirsVd12OKoQ6TphYt9ViDHqyoFJ+ZFMh4ce5n4ku9fDp9hA/qRW8aSdPUCjl/wX&#xA;XCIAcggzJ5lEZJi7FXYq7FUJrP8AxyL7/mHl/wCIHIZfpPuZ4/qHvReTYOxV2KuxV2KuxV2KuxV2&#xA;KuxV2KuxV2KuxV2KoHV9D0fWLY22p2kV3D2WRQSp8Vb7Sn3ByMog82UZmPIvPdS/Ju4sbg33k7Vp&#xA;dOuAarbTMxj/ANjIvxD/AGQb55jy03WJcuOrvaQtCp+Ynn7yuwh826O1xbLt9eiAoew/eJyj+/fI&#xA;+Jkh9Qtl4OOf0mmZ6D+ZPlDWgFt75YZzX9xcfu22+fw/jl0dRE+TRPTTj0tk4IIqNwehy5x3Yq7F&#xA;XYq7FXYq7FXYq7FXYq7FXYqgdSYTPDYqfimYPLTtDGQzE+zGifTlc96DZDayjssa3Yq7FXYq7FXY&#xA;q7FXYq7FXYq7FXYq7FXYq7FXYq7FWmVXUo4DKwIZSKgg9QRirDtf/KbyZq5aUWh0+6O/r2ZEW/Wp&#xA;Shj6/wCTX3ymWCJciGpnHzYy3kX8zvLRL+WtZGo2q1K2k54Ma/5EhaM/PkMp8CcfpLf+Yxz+oKkX&#xA;5u6/o8i2/mzQJrU1C/WIwVU+LDlVW/2Jw+POP1BH5aEvpLK9G/M3yXqxVYNQWGVukVx+6bb3Pw/j&#xA;lkdRA+TTLTTHS2TQzwzxiWGRZY2+y6EMp+RGXAg8mggjmvwodirsVdirsVdirsVSbXPNWn6XJHaI&#xA;DearOeNrp0NDK7Urv2RfFm6DfKp5QNhuW2GIy35R70RotheQRyXOoSCXUrohrgp/doBXhFH/AJKV&#xA;+k1PfDCJG55lGSQOw5BMcsa3Yq7FXYq7FXYq7FXYq7FXYq7FXYq7FXYq7FXYq7FXYq7FXYqtkjjl&#xA;jaORA8bCjIwBBHuDirFdY/KzyNqnJpNNS2lP+7bQmAj34p8B+lcqlhiejfHUTHVjUv5Oarp0nreW&#xA;vMlxasuyRT1P/Dxlf+IZSdNXItw1l/UFqn88dG4gpb61bx9SrIWYe5f0pD9AxrLHzTeCXkuH5t+Z&#xA;bAMNc8q3UJHR41kRPvdWB+g4+PMcwv5aB+mSKtvz28pMKXMF1buNivAPQ1+YwjVDqCxOil0IV/8A&#xA;lePkb+a6/wCRP/N2H81HuKPyc/Jpvzy8jgfCbpj2Ah/5ux/NR7iv5KfeFi/mrql/yXRPK9/dk7Rz&#xA;OpSOv+UeNB/wWPjyPKKfy0R9UlZNP/NPXafpC7g8u2TU5Q2v76528GBKrX/W+jHgyS5mkceKPIcR&#xA;82SeXfKGi6AjmzjaS6lFJ76dvUnk9i56D/JWg9sthjEeTRkyynzTrLGt/9k=</xmpGImg:image>
               </rdf:li>
            </rdf:Alt>
         </xmp:Thumbnails>
         <xmpMM:InstanceID>xmp.iid:43d4ed59-4166-4f1b-85be-bc79778c4238</xmpMM:InstanceID>
         <xmpMM:DocumentID>xmp.did:43d4ed59-4166-4f1b-85be-bc79778c4238</xmpMM:DocumentID>
         <xmpMM:OriginalDocumentID>uuid:5D20892493BFDB11914A8590D31508C8</xmpMM:OriginalDocumentID>
         <xmpMM:RenditionClass>default</xmpMM:RenditionClass>
         <xmpMM:DerivedFrom rdf:parseType="Resource">
            <stRef:instanceID>xmp.iid:85c3de14-7f5b-4176-a147-ef10f5c20fa7</stRef:instanceID>
            <stRef:documentID>xmp.did:85c3de14-7f5b-4176-a147-ef10f5c20fa7</stRef:documentID>
            <stRef:originalDocumentID>uuid:5D20892493BFDB11914A8590D31508C8</stRef:originalDocumentID>
            <stRef:renditionClass>default</stRef:renditionClass>
         </xmpMM:DerivedFrom>
         <xmpMM:History>
            <rdf:Seq>
               <rdf:li rdf:parseType="Resource">
                  <stEvt:action>saved</stEvt:action>
                  <stEvt:instanceID>xmp.iid:bce2b423-7ffe-4773-a29d-3c67e86969e2</stEvt:instanceID>
                  <stEvt:when>2023-01-06T11:00:49+07:00</stEvt:when>
                  <stEvt:softwareAgent>Adobe Illustrator 24.1 (Macintosh)</stEvt:softwareAgent>
                  <stEvt:changed>/</stEvt:changed>
               </rdf:li>
               <rdf:li rdf:parseType="Resource">
                  <stEvt:action>saved</stEvt:action>
                  <stEvt:instanceID>xmp.iid:4d227227-c468-4e9e-8f84-5d1b311ffd08</stEvt:instanceID>
                  <stEvt:when>2023-01-11T09:59:02+07:00</stEvt:when>
                  <stEvt:softwareAgent>Adobe Illustrator 24.1 (Macintosh)</stEvt:softwareAgent>
                  <stEvt:changed>/</stEvt:changed>
               </rdf:li>
               <rdf:li rdf:parseType="Resource">
                  <stEvt:action>converted</stEvt:action>
                  <stEvt:parameters>from application/postscript to application/vnd.adobe.illustrator</stEvt:parameters>
               </rdf:li>
               <rdf:li rdf:parseType="Resource">
                  <stEvt:action>saved</stEvt:action>
                  <stEvt:instanceID>xmp.iid:7ed08024-e17c-4a77-83f4-6eac6a7b0c7d</stEvt:instanceID>
                  <stEvt:when>2024-01-12T00:49:55+01:00</stEvt:when>
                  <stEvt:softwareAgent>Adobe Illustrator 25.4 (Macintosh)</stEvt:softwareAgent>
                  <stEvt:changed>/</stEvt:changed>
               </rdf:li>
               <rdf:li rdf:parseType="Resource">
                  <stEvt:action>saved</stEvt:action>
                  <stEvt:instanceID>xmp.iid:43d4ed59-4166-4f1b-85be-bc79778c4238</stEvt:instanceID>
                  <stEvt:when>2024-01-12T17:56:02+01:00</stEvt:when>
                  <stEvt:softwareAgent>Adobe Illustrator 25.4 (Macintosh)</stEvt:softwareAgent>
                  <stEvt:changed>/</stEvt:changed>
               </rdf:li>
            </rdf:Seq>
         </xmpMM:History>
         <illustrator:StartupProfile>Print</illustrator:StartupProfile>
         <illustrator:CreatorSubTool>Adobe Illustrator</illustrator:CreatorSubTool>
         <pdf:Producer>Adobe PDF library 15.00</pdf:Producer>
         <xmpTPg:MaxPageSize rdf:parseType="Resource">
            <stDim:w>384.984690</stDim:w>
            <stDim:h>332.285192</stDim:h>
            <stDim:unit>Points</stDim:unit>
         </xmpTPg:MaxPageSize>
         <xmpTPg:NPages>1</xmpTPg:NPages>
         <xmpTPg:HasVisibleTransparency>False</xmpTPg:HasVisibleTransparency>
         <xmpTPg:HasVisibleOverprint>False</xmpTPg:HasVisibleOverprint>
         <xmpTPg:PlateNames>
            <rdf:Seq>
               <rdf:li>Cyan</rdf:li>
               <rdf:li>Magenta</rdf:li>
               <rdf:li>Yellow</rdf:li>
               <rdf:li>Black</rdf:li>
            </rdf:Seq>
         </xmpTPg:PlateNames>
         <xmpTPg:SwatchGroups>
            <rdf:Seq>
               <rdf:li rdf:parseType="Resource">
                  <xmpG:groupName>Grupo de muestras por defecto</xmpG:groupName>
                  <xmpG:groupType>0</xmpG:groupType>
                  <xmpG:Colorants>
                     <rdf:Seq>
                        <rdf:li rdf:parseType="Resource">
                           <xmpG:swatchName>White</xmpG:swatchName>
                           <xmpG:mode>RGB</xmpG:mode>
                           <xmpG:type>PROCESS</xmpG:type>
                           <xmpG:red>255</xmpG:red>
                           <xmpG:green>255</xmpG:green>
                           <xmpG:blue>255</xmpG:blue>
                        </rdf:li>
                        <rdf:li rdf:parseType="Resource">
                           <xmpG:swatchName>Black</xmpG:swatchName>
                           <xmpG:mode>RGB</xmpG:mode>
                           <xmpG:type>PROCESS</xmpG:type>
                           <xmpG:red>35</xmpG:red>
                           <xmpG:green>31</xmpG:green>
                           <xmpG:blue>32</xmpG:blue>
                        </rdf:li>
                        <rdf:li rdf:parseType="Resource">
                           <xmpG:swatchName>CMYK Red</xmpG:swatchName>
                           <xmpG:mode>RGB</xmpG:mode>
                           <xmpG:type>PROCESS</xmpG:type>
                           <xmpG:red>237</xmpG:red>
                           <xmpG:green>28</xmpG:green>
                           <xmpG:blue>36</xmpG:blue>
                        </rdf:li>
                        <rdf:li rdf:parseType="Resource">
                           <xmpG:swatchName>CMYK Yellow</xmpG:swatchName>
                           <xmpG:mode>RGB</xmpG:mode>
                           <xmpG:type>PROCESS</xmpG:type>
                           <xmpG:red>255</xmpG:red>
                           <xmpG:green>242</xmpG:green>
                           <xmpG:blue>0</xmpG:blue>
                        </rdf:li>
                        <rdf:li rdf:parseType="Resource">
                           <xmpG:swatchName>CMYK Green</xmpG:swatchName>
                           <xmpG:mode>RGB</xmpG:mode>
                           <xmpG:type>PROCESS</xmpG:type>
                           <xmpG:red>0</xmpG:red>
                           <xmpG:green>166</xmpG:green>
                           <xmpG:blue>81</xmpG:blue>
                        </rdf:li>
                        <rdf:li rdf:parseType="Resource">
                           <xmpG:swatchName>CMYK Cyan</xmpG:swatchName>
                           <xmpG:mode>RGB</xmpG:mode>
                           <xmpG:type>PROCESS</xmpG:type>
                           <xmpG:red>0</xmpG:red>
                           <xmpG:green>174</xmpG:green>
                           <xmpG:blue>239</xmpG:blue>
                        </rdf:li>
                        <rdf:li rdf:parseType="Resource">
                           <xmpG:swatchName>CMYK Blue</xmpG:swatchName>
                           <xmpG:mode>RGB</xmpG:mode>
                           <xmpG:type>PROCESS</xmpG:type>
                           <xmpG:red>46</xmpG:red>
                           <xmpG:green>49</xmpG:green>
                           <xmpG:blue>146</xmpG:blue>
                        </rdf:li>
                        <rdf:li rdf:parseType="Resource">
                           <xmpG:swatchName>CMYK Magenta</xmpG:swatchName>
                           <xmpG:mode>RGB</xmpG:mode>
                           <xmpG:type>PROCESS</xmpG:type>
                           <xmpG:red>236</xmpG:red>
                           <xmpG:green>0</xmpG:green>
                           <xmpG:blue>140</xmpG:blue>
                        </rdf:li>
                        <rdf:li rdf:parseType="Resource">
                           <xmpG:swatchName>C=15 M=100 Y=90 K=10</xmpG:swatchName>
                           <xmpG:mode>RGB</xmpG:mode>
                           <xmpG:type>PROCESS</xmpG:type>
                           <xmpG:red>190</xmpG:red>
                           <xmpG:green>30</xmpG:green>
                           <xmpG:blue>45</xmpG:blue>
                        </rdf:li>
                        <rdf:li rdf:parseType="Resource">
                           <xmpG:swatchName>C=0 M=90 Y=85 K=0</xmpG:swatchName>
                           <xmpG:mode>RGB</xmpG:mode>
                           <xmpG:type>PROCESS</xmpG:type>
                           <xmpG:red>239</xmpG:red>
                           <xmpG:green>65</xmpG:green>
                           <xmpG:blue>54</xmpG:blue>
                        </rdf:li>
                        <rdf:li rdf:parseType="Resource">
                           <xmpG:swatchName>C=0 M=80 Y=95 K=0</xmpG:swatchName>
                           <xmpG:mode>RGB</xmpG:mode>
                           <xmpG:type>PROCESS</xmpG:type>
                           <xmpG:red>241</xmpG:red>
                           <xmpG:green>90</xmpG:green>
                           <xmpG:blue>41</xmpG:blue>
                        </rdf:li>
                        <rdf:li rdf:parseType="Resource">
                           <xmpG:swatchName>C=0 M=50 Y=100 K=0</xmpG:swatchName>
                           <xmpG:mode>RGB</xmpG:mode>
                           <xmpG:type>PROCESS</xmpG:type>
                           <xmpG:red>247</xmpG:red>
                           <xmpG:green>148</xmpG:green>
                           <xmpG:blue>29</xmpG:blue>
                        </rdf:li>
                        <rdf:li rdf:parseType="Resource">
                           <xmpG:swatchName>C=0 M=35 Y=85 K=0</xmpG:swatchName>
                           <xmpG:mode>RGB</xmpG:mode>
                           <xmpG:type>PROCESS</xmpG:type>
                           <xmpG:red>251</xmpG:red>
                           <xmpG:green>176</xmpG:green>
                           <xmpG:blue>64</xmpG:blue>
                        </rdf:li>
                        <rdf:li rdf:parseType="Resource">
                           <xmpG:swatchName>C=5 M=0 Y=90 K=0</xmpG:swatchName>
                           <xmpG:mode>RGB</xmpG:mode>
                           <xmpG:type>PROCESS</xmpG:type>
                           <xmpG:red>249</xmpG:red>
                           <xmpG:green>237</xmpG:green>
                           <xmpG:blue>50</xmpG:blue>
                        </rdf:li>
                        <rdf:li rdf:parseType="Resource">
                           <xmpG:swatchName>C=20 M=0 Y=100 K=0</xmpG:swatchName>
                           <xmpG:mode>RGB</xmpG:mode>
                           <xmpG:type>PROCESS</xmpG:type>
                           <xmpG:red>215</xmpG:red>
                           <xmpG:green>223</xmpG:green>
                           <xmpG:blue>35</xmpG:blue>
                        </rdf:li>
                        <rdf:li rdf:parseType="Resource">
                           <xmpG:swatchName>C=50 M=0 Y=100 K=0</xmpG:swatchName>
                           <xmpG:mode>RGB</xmpG:mode>
                           <xmpG:type>PROCESS</xmpG:type>
                           <xmpG:red>141</xmpG:red>
                           <xmpG:green>198</xmpG:green>
                           <xmpG:blue>63</xmpG:blue>
                        </rdf:li>
                        <rdf:li rdf:parseType="Resource">
                           <xmpG:swatchName>C=75 M=0 Y=100 K=0</xmpG:swatchName>
                           <xmpG:mode>RGB</xmpG:mode>
                           <xmpG:type>PROCESS</xmpG:type>
                           <xmpG:red>57</xmpG:red>
                           <xmpG:green>181</xmpG:green>
                           <xmpG:blue>74</xmpG:blue>
                        </rdf:li>
                        <rdf:li rdf:parseType="Resource">
                           <xmpG:swatchName>C=85 M=10 Y=100 K=10</xmpG:swatchName>
                           <xmpG:mode>RGB</xmpG:mode>
                           <xmpG:type>PROCESS</xmpG:type>
                           <xmpG:red>0</xmpG:red>
                           <xmpG:green>148</xmpG:green>
                           <xmpG:blue>68</xmpG:blue>
                        </rdf:li>
                        <rdf:li rdf:parseType="Resource">
                           <xmpG:swatchName>C=90 M=30 Y=95 K=30</xmpG:swatchName>
                           <xmpG:mode>RGB</xmpG:mode>
                           <xmpG:type>PROCESS</xmpG:type>
                           <xmpG:red>0</xmpG:red>
                           <xmpG:green>104</xmpG:green>
                           <xmpG:blue>56</xmpG:blue>
                        </rdf:li>
                        <rdf:li rdf:parseType="Resource">
                           <xmpG:swatchName>C=75 M=0 Y=75 K=0</xmpG:swatchName>
                           <xmpG:mode>RGB</xmpG:mode>
                           <xmpG:type>PROCESS</xmpG:type>
                           <xmpG:red>43</xmpG:red>
                           <xmpG:green>182</xmpG:green>
                           <xmpG:blue>115</xmpG:blue>
                        </rdf:li>
                        <rdf:li rdf:parseType="Resource">
                           <xmpG:swatchName>C=80 M=10 Y=45 K=0</xmpG:swatchName>
                           <xmpG:mode>RGB</xmpG:mode>
                           <xmpG:type>PROCESS</xmpG:type>
                           <xmpG:red>0</xmpG:red>
                           <xmpG:green>167</xmpG:green>
                           <xmpG:blue>157</xmpG:blue>
                        </rdf:li>
                        <rdf:li rdf:parseType="Resource">
                           <xmpG:swatchName>C=70 M=15 Y=0 K=0</xmpG:swatchName>
                           <xmpG:mode>RGB</xmpG:mode>
                           <xmpG:type>PROCESS</xmpG:type>
                           <xmpG:red>39</xmpG:red>
                           <xmpG:green>170</xmpG:green>
                           <xmpG:blue>225</xmpG:blue>
                        </rdf:li>
                        <rdf:li rdf:parseType="Resource">
                           <xmpG:swatchName>C=85 M=50 Y=0 K=0</xmpG:swatchName>
                           <xmpG:mode>RGB</xmpG:mode>
                           <xmpG:type>PROCESS</xmpG:type>
                           <xmpG:red>28</xmpG:red>
                           <xmpG:green>117</xmpG:green>
                           <xmpG:blue>188</xmpG:blue>
                        </rdf:li>
                        <rdf:li rdf:parseType="Resource">
                           <xmpG:swatchName>C=100 M=95 Y=5 K=0</xmpG:swatchName>
                           <xmpG:mode>RGB</xmpG:mode>
                           <xmpG:type>PROCESS</xmpG:type>
                           <xmpG:red>43</xmpG:red>
                           <xmpG:green>57</xmpG:green>
                           <xmpG:blue>144</xmpG:blue>
                        </rdf:li>
                        <rdf:li rdf:parseType="Resource">
                           <xmpG:swatchName>C=100 M=100 Y=25 K=25</xmpG:swatchName>
                           <xmpG:mode>RGB</xmpG:mode>
                           <xmpG:type>PROCESS</xmpG:type>
                           <xmpG:red>38</xmpG:red>
                           <xmpG:green>34</xmpG:green>
                           <xmpG:blue>98</xmpG:blue>
                        </rdf:li>
                        <rdf:li rdf:parseType="Resource">
                           <xmpG:swatchName>C=75 M=100 Y=0 K=0</xmpG:swatchName>
                           <xmpG:mode>RGB</xmpG:mode>
                           <xmpG:type>PROCESS</xmpG:type>
                           <xmpG:red>102</xmpG:red>
                           <xmpG:green>45</xmpG:green>
                           <xmpG:blue>145</xmpG:blue>
                        </rdf:li>
                        <rdf:li rdf:parseType="Resource">
                           <xmpG:swatchName>C=50 M=100 Y=0 K=0</xmpG:swatchName>
                           <xmpG:mode>RGB</xmpG:mode>
                           <xmpG:type>PROCESS</xmpG:type>
                           <xmpG:red>146</xmpG:red>
                           <xmpG:green>39</xmpG:green>
                           <xmpG:blue>143</xmpG:blue>
                        </rdf:li>
                        <rdf:li rdf:parseType="Resource">
                           <xmpG:swatchName>C=35 M=100 Y=35 K=10</xmpG:swatchName>
                           <xmpG:mode>RGB</xmpG:mode>
                           <xmpG:type>PROCESS</xmpG:type>
                           <xmpG:red>158</xmpG:red>
                           <xmpG:green>31</xmpG:green>
                           <xmpG:blue>99</xmpG:blue>
                        </rdf:li>
                        <rdf:li rdf:parseType="Resource">
                           <xmpG:swatchName>C=10 M=100 Y=50 K=0</xmpG:swatchName>
                           <xmpG:mode>RGB</xmpG:mode>
                           <xmpG:type>PROCESS</xmpG:type>
                           <xmpG:red>218</xmpG:red>
                           <xmpG:green>28</xmpG:green>
                           <xmpG:blue>92</xmpG:blue>
                        </rdf:li>
                        <rdf:li rdf:parseType="Resource">
                           <xmpG:swatchName>C=0 M=95 Y=20 K=0</xmpG:swatchName>
                           <xmpG:mode>RGB</xmpG:mode>
                           <xmpG:type>PROCESS</xmpG:type>
                           <xmpG:red>238</xmpG:red>
                           <xmpG:green>42</xmpG:green>
                           <xmpG:blue>123</xmpG:blue>
                        </rdf:li>
                        <rdf:li rdf:parseType="Resource">
                           <xmpG:swatchName>C=25 M=25 Y=40 K=0</xmpG:swatchName>
                           <xmpG:mode>RGB</xmpG:mode>
                           <xmpG:type>PROCESS</xmpG:type>
                           <xmpG:red>194</xmpG:red>
                           <xmpG:green>181</xmpG:green>
                           <xmpG:blue>155</xmpG:blue>
                        </rdf:li>
                        <rdf:li rdf:parseType="Resource">
                           <xmpG:swatchName>C=40 M=45 Y=50 K=5</xmpG:swatchName>
                           <xmpG:mode>RGB</xmpG:mode>
                           <xmpG:type>PROCESS</xmpG:type>
                           <xmpG:red>155</xmpG:red>
                           <xmpG:green>133</xmpG:green>
                           <xmpG:blue>121</xmpG:blue>
                        </rdf:li>
                        <rdf:li rdf:parseType="Resource">
                           <xmpG:swatchName>C=50 M=50 Y=60 K=25</xmpG:swatchName>
                           <xmpG:mode>RGB</xmpG:mode>
                           <xmpG:type>PROCESS</xmpG:type>
                           <xmpG:red>114</xmpG:red>
                           <xmpG:green>102</xmpG:green>
                           <xmpG:blue>88</xmpG:blue>
                        </rdf:li>
                        <rdf:li rdf:parseType="Resource">
                           <xmpG:swatchName>C=55 M=60 Y=65 K=40</xmpG:swatchName>
                           <xmpG:mode>RGB</xmpG:mode>
                           <xmpG:type>PROCESS</xmpG:type>
                           <xmpG:red>89</xmpG:red>
                           <xmpG:green>74</xmpG:green>
                           <xmpG:blue>66</xmpG:blue>
                        </rdf:li>
                        <rdf:li rdf:parseType="Resource">
                           <xmpG:swatchName>C=25 M=40 Y=65 K=0</xmpG:swatchName>
                           <xmpG:mode>RGB</xmpG:mode>
                           <xmpG:type>PROCESS</xmpG:type>
                           <xmpG:red>196</xmpG:red>
                           <xmpG:green>154</xmpG:green>
                           <xmpG:blue>108</xmpG:blue>
                        </rdf:li>
                        <rdf:li rdf:parseType="Resource">
                           <xmpG:swatchName>C=30 M=50 Y=75 K=10</xmpG:swatchName>
                           <xmpG:mode>RGB</xmpG:mode>
                           <xmpG:type>PROCESS</xmpG:type>
                           <xmpG:red>169</xmpG:red>
                           <xmpG:green>124</xmpG:green>
                           <xmpG:blue>80</xmpG:blue>
                        </rdf:li>
                        <rdf:li rdf:parseType="Resource">
                           <xmpG:swatchName>C=35 M=60 Y=80 K=25</xmpG:swatchName>
                           <xmpG:mode>RGB</xmpG:mode>
                           <xmpG:type>PROCESS</xmpG:type>
                           <xmpG:red>139</xmpG:red>
                           <xmpG:green>94</xmpG:green>
                           <xmpG:blue>60</xmpG:blue>
                        </rdf:li>
                        <rdf:li rdf:parseType="Resource">
                           <xmpG:swatchName>C=40 M=65 Y=90 K=35</xmpG:swatchName>
                           <xmpG:mode>RGB</xmpG:mode>
                           <xmpG:type>PROCESS</xmpG:type>
                           <xmpG:red>117</xmpG:red>
                           <xmpG:green>76</xmpG:green>
                           <xmpG:blue>41</xmpG:blue>
                        </rdf:li>
                        <rdf:li rdf:parseType="Resource">
                           <xmpG:swatchName>C=40 M=70 Y=100 K=50</xmpG:swatchName>
                           <xmpG:mode>RGB</xmpG:mode>
                           <xmpG:type>PROCESS</xmpG:type>
                           <xmpG:red>96</xmpG:red>
                           <xmpG:green>57</xmpG:green>
                           <xmpG:blue>19</xmpG:blue>
                        </rdf:li>
                        <rdf:li rdf:parseType="Resource">
                           <xmpG:swatchName>C=50 M=70 Y=80 K=70</xmpG:swatchName>
                           <xmpG:mode>RGB</xmpG:mode>
                           <xmpG:type>PROCESS</xmpG:type>
                           <xmpG:red>60</xmpG:red>
                           <xmpG:green>36</xmpG:green>
                           <xmpG:blue>21</xmpG:blue>
                        </rdf:li>
                        <rdf:li rdf:parseType="Resource">
                           <xmpG:swatchName>C=0 M=0 Y=0 K=100</xmpG:swatchName>
                           <xmpG:mode>RGB</xmpG:mode>
                           <xmpG:type>PROCESS</xmpG:type>
                           <xmpG:red>35</xmpG:red>
                           <xmpG:green>31</xmpG:green>
                           <xmpG:blue>32</xmpG:blue>
                        </rdf:li>
                        <rdf:li rdf:parseType="Resource">
                           <xmpG:swatchName>C=0 M=0 Y=0 K=90</xmpG:swatchName>
                           <xmpG:mode>RGB</xmpG:mode>
                           <xmpG:type>PROCESS</xmpG:type>
                           <xmpG:red>65</xmpG:red>
                           <xmpG:green>64</xmpG:green>
                           <xmpG:blue>66</xmpG:blue>
                        </rdf:li>
                        <rdf:li rdf:parseType="Resource">
                           <xmpG:swatchName>C=0 M=0 Y=0 K=80</xmpG:swatchName>
                           <xmpG:mode>RGB</xmpG:mode>
                           <xmpG:type>PROCESS</xmpG:type>
                           <xmpG:red>88</xmpG:red>
                           <xmpG:green>89</xmpG:green>
                           <xmpG:blue>91</xmpG:blue>
                        </rdf:li>
                        <rdf:li rdf:parseType="Resource">
                           <xmpG:swatchName>C=0 M=0 Y=0 K=70</xmpG:swatchName>
                           <xmpG:mode>RGB</xmpG:mode>
                           <xmpG:type>PROCESS</xmpG:type>
                           <xmpG:red>109</xmpG:red>
                           <xmpG:green>110</xmpG:green>
                           <xmpG:blue>113</xmpG:blue>
                        </rdf:li>
                        <rdf:li rdf:parseType="Resource">
                           <xmpG:swatchName>C=0 M=0 Y=0 K=60</xmpG:swatchName>
                           <xmpG:mode>RGB</xmpG:mode>
                           <xmpG:type>PROCESS</xmpG:type>
                           <xmpG:red>128</xmpG:red>
                           <xmpG:green>130</xmpG:green>
                           <xmpG:blue>133</xmpG:blue>
                        </rdf:li>
                        <rdf:li rdf:parseType="Resource">
                           <xmpG:swatchName>C=0 M=0 Y=0 K=50</xmpG:swatchName>
                           <xmpG:mode>RGB</xmpG:mode>
                           <xmpG:type>PROCESS</xmpG:type>
                           <xmpG:red>147</xmpG:red>
                           <xmpG:green>149</xmpG:green>
                           <xmpG:blue>152</xmpG:blue>
                        </rdf:li>
                        <rdf:li rdf:parseType="Resource">
                           <xmpG:swatchName>C=0 M=0 Y=0 K=40</xmpG:swatchName>
                           <xmpG:mode>RGB</xmpG:mode>
                           <xmpG:type>PROCESS</xmpG:type>
                           <xmpG:red>167</xmpG:red>
                           <xmpG:green>169</xmpG:green>
                           <xmpG:blue>172</xmpG:blue>
                        </rdf:li>
                        <rdf:li rdf:parseType="Resource">
                           <xmpG:swatchName>C=0 M=0 Y=0 K=30</xmpG:swatchName>
                           <xmpG:mode>RGB</xmpG:mode>
                           <xmpG:type>PROCESS</xmpG:type>
                           <xmpG:red>188</xmpG:red>
                           <xmpG:green>190</xmpG:green>
                           <xmpG:blue>192</xmpG:blue>
                        </rdf:li>
                        <rdf:li rdf:parseType="Resource">
                           <xmpG:swatchName>C=0 M=0 Y=0 K=20</xmpG:swatchName>
                           <xmpG:mode>RGB</xmpG:mode>
                           <xmpG:type>PROCESS</xmpG:type>
                           <xmpG:red>209</xmpG:red>
                           <xmpG:green>211</xmpG:green>
                           <xmpG:blue>212</xmpG:blue>
                        </rdf:li>
                        <rdf:li rdf:parseType="Resource">
                           <xmpG:swatchName>C=0 M=0 Y=0 K=10</xmpG:swatchName>
                           <xmpG:mode>RGB</xmpG:mode>
                           <xmpG:type>PROCESS</xmpG:type>
                           <xmpG:red>230</xmpG:red>
                           <xmpG:green>231</xmpG:green>
                           <xmpG:blue>232</xmpG:blue>
                        </rdf:li>
                        <rdf:li rdf:parseType="Resource">
                           <xmpG:swatchName>C=0 M=0 Y=0 K=5</xmpG:swatchName>
                           <xmpG:mode>RGB</xmpG:mode>
                           <xmpG:type>PROCESS</xmpG:type>
                           <xmpG:red>241</xmpG:red>
                           <xmpG:green>242</xmpG:green>
                           <xmpG:blue>242</xmpG:blue>
                        </rdf:li>
                        <rdf:li rdf:parseType="Resource">
                           <xmpG:swatchName>C=0 M=100 Y=100 K=0</xmpG:swatchName>
                           <xmpG:mode>RGB</xmpG:mode>
                           <xmpG:type>PROCESS</xmpG:type>
                           <xmpG:red>237</xmpG:red>
                           <xmpG:green>28</xmpG:green>
                           <xmpG:blue>36</xmpG:blue>
                        </rdf:li>
                        <rdf:li rdf:parseType="Resource">
                           <xmpG:swatchName>C=0 M=75 Y=100 K=0</xmpG:swatchName>
                           <xmpG:mode>RGB</xmpG:mode>
                           <xmpG:type>PROCESS</xmpG:type>
                           <xmpG:red>242</xmpG:red>
                           <xmpG:green>101</xmpG:green>
                           <xmpG:blue>34</xmpG:blue>
                        </rdf:li>
                        <rdf:li rdf:parseType="Resource">
                           <xmpG:swatchName>C=0 M=10 Y=95 K=0</xmpG:swatchName>
                           <xmpG:mode>RGB</xmpG:mode>
                           <xmpG:type>PROCESS</xmpG:type>
                           <xmpG:red>255</xmpG:red>
                           <xmpG:green>222</xmpG:green>
                           <xmpG:blue>23</xmpG:blue>
                        </rdf:li>
                        <rdf:li rdf:parseType="Resource">
                           <xmpG:swatchName>C=85 M=10 Y=100 K=0</xmpG:swatchName>
                           <xmpG:mode>RGB</xmpG:mode>
                           <xmpG:type>PROCESS</xmpG:type>
                           <xmpG:red>0</xmpG:red>
                           <xmpG:green>161</xmpG:green>
                           <xmpG:blue>75</xmpG:blue>
                        </rdf:li>
                        <rdf:li rdf:parseType="Resource">
                           <xmpG:swatchName>C=100 M=90 Y=0 K=0</xmpG:swatchName>
                           <xmpG:mode>RGB</xmpG:mode>
                           <xmpG:type>PROCESS</xmpG:type>
                           <xmpG:red>33</xmpG:red>
                           <xmpG:green>64</xmpG:green>
                           <xmpG:blue>154</xmpG:blue>
                        </rdf:li>
                        <rdf:li rdf:parseType="Resource">
                           <xmpG:swatchName>C=60 M=90 Y=0 K=0</xmpG:swatchName>
                           <xmpG:mode>RGB</xmpG:mode>
                           <xmpG:type>PROCESS</xmpG:type>
                           <xmpG:red>127</xmpG:red>
                           <xmpG:green>63</xmpG:green>
                           <xmpG:blue>152</xmpG:blue>
                        </rdf:li>
                     </rdf:Seq>
                  </xmpG:Colorants>
               </rdf:li>
            </rdf:Seq>
         </xmpTPg:SwatchGroups>
      </rdf:Description>
   </rdf:RDF>
</x:xmpmeta>
                                                                                                    
                                                                                                    
                                                                                                    
                                                                                                    
                                                                                                    
                                                                                                    
                                                                                                    
                                                                                                    
                                                                                                    
                                                                                                    
                                                                                                    
                                                                                                    
                                                                                                    
                                                                                                    
                                                                                                    
                                                                                                    
                                                                                                    
                                                                                                    
                                                                                                    
                                                                                                    
                           
<?xpacket end="w"?>
	</metadata>
<g id="_x37_" class="st0">
	<g class="st1">
		<g>
			<path class="st2" d="M208.2,160.71c-0.41-0.46-0.85-0.91-1.31-1.33c-2.01-1.87-4.26-3.74-5.29-6.36
				c-1.26-3.21-0.29-6.84-0.7-10.19c-0.66-5.5-5.39-8.7-10.38-10.14c-4.65-1.34-11.34-2.04-15,1.82c-1.42,1.5-2.23,3.38-2.98,5.28
				c-0.9,2.27-1.77,1.66-3.9,2.17c-1.28,0.3-2.51,0.74-3.67,1.35c-2.21,1.16-4.16,2.91-5.31,5.16c-0.85,1.67-1.08,3.5-1.2,5.35
				c-0.11,1.75-0.16,3.58-0.93,5.2c-0.77,1.62-2.28,2.82-3.58,4.01c-1.14,1.05-2.31,2.1-3.28,3.31c-0.93,1.15-1.67,2.45-1.99,3.9
				c-0.38,1.7-0.21,3.46,0.23,5.14c0.77,2.96,2.41,5.69,5.05,7.34c2.41,1.51,5.31,2,8.12,1.87c1.51-0.07,3.02-0.31,4.49-0.68
				c1.75-0.44,3.41-1.13,5.1-1.75c1.86-0.69,3.78-1.15,5.7-0.37c1.64,0.67,2.94,1.99,4.27,3.13c1.32,1.13,2.77,2.08,4.48,2.48
				c1.48,0.34,3.03,0.45,4.55,0.4c6.43-0.21,13.05-3.21,17.23-8.14c2.15-2.54,3.62-5.62,3.92-8.96
				C212.15,166.82,210.64,163.46,208.2,160.71z"/>
			<path class="st3" d="M208.2,160.71c-0.41-0.46-0.85-0.91-1.31-1.33c-2.01-1.87-4.26-3.74-5.29-6.36
				c-1.26-3.21-0.29-6.84-0.7-10.19c-0.66-5.5-5.39-8.7-10.38-10.14c-0.34-0.1-0.7-0.19-1.06-0.28c0.97,0.41,1.9,0.93,2.76,1.55
				c2.25,1.63,4.16,3.91,4.73,6.69c0.55,2.69-0.13,5.44-1.11,7.95c-0.88,2.24-1.97,4.61-1.41,7.08c0.45,2.01,1.98,3.51,3.53,4.75
				c2.09,1.67,4.46,2.98,6.4,4.83c1.84,1.74,3.28,3.91,3.78,6.42c0.49,2.42,0.16,4.99-0.85,7.23c-0.59,1.31-1.41,2.51-2.38,3.58
				c1.08-0.86,2.08-1.81,2.96-2.86c2.15-2.54,3.62-5.62,3.92-8.96C212.15,166.82,210.64,163.46,208.2,160.71z"/>
			<path class="st3" d="M186.39,186.78c-1.21-0.66-2.25-1.57-3.17-2.59c-1.89-2.09-3.29-4.64-5.45-6.48
				c-1.03-0.88-2.25-1.51-3.59-1.77c-1.29-0.24-2.62-0.12-3.88,0.2c-1.44,0.37-2.77,1.01-4.11,1.65c-1.34,0.64-2.68,1.27-4.07,1.78
				c-2.68,0.99-5.7,1.5-8.36,0.16c-2.21-1.11-3.73-3.19-4.48-5.51c-0.4-1.24-0.59-2.54-0.62-3.85c-0.33,1.66-0.17,3.35,0.26,4.98
				c0.77,2.96,2.41,5.69,5.05,7.34c2.41,1.51,5.31,2,8.12,1.87c1.51-0.07,3.02-0.31,4.49-0.68c1.75-0.44,3.41-1.13,5.1-1.75
				c1.86-0.69,3.78-1.15,5.7-0.37c1.64,0.67,2.94,1.99,4.27,3.13c1.32,1.13,2.77,2.08,4.48,2.48c0.93,0.21,1.89,0.34,2.85,0.38
				C188.06,187.53,187.19,187.22,186.39,186.78z"/>
		</g>
		<g>
			<path class="st4" d="M217,146.05c-1.26-1.31-3.02-1.86-4.81-1.89c-2.32-0.04-4.93,0.81-6.51,2.56c-1.42,1.57-1.94,3.92-1.31,5.94
				c1.3,4.18,7.55,6.49,11.15,3.87c1.66-1.2,2.72-3.1,3.03-5.12C218.83,149.52,218.36,147.46,217,146.05z"/>
			<path class="st2" d="M210.27,146.53c-0.3-0.31-0.72-0.44-1.14-0.45c-0.55-0.01-1.17,0.19-1.55,0.61
				c-0.34,0.37-0.46,0.93-0.31,1.41c0.31,0.99,1.79,1.54,2.65,0.92c0.39-0.29,0.65-0.74,0.72-1.22
				C210.7,147.35,210.59,146.86,210.27,146.53z"/>
			<path class="st5" d="M217,146.05c-1.26-1.31-3.02-1.86-4.81-1.89c-2.32-0.04-4.93,0.81-6.51,2.56c-1.42,1.57-1.94,3.92-1.31,5.94
				c1.3,4.18,7.55,6.49,11.15,3.87c1.66-1.2,2.72-3.1,3.03-5.12C218.83,149.52,218.36,147.46,217,146.05z M214.67,149.61
				c-0.19,1.24-0.84,2.41-1.87,3.16c-2.22,1.61-6.07,0.19-6.87-2.39c-0.39-1.25-0.07-2.69,0.81-3.66c0.98-1.08,2.58-1.6,4.02-1.58
				c1.1,0.02,2.18,0.36,2.96,1.17C214.55,147.16,214.84,148.44,214.67,149.61z"/>
		</g>
		<path class="st6" d="M151.94,170.49c0.38,0,0.72-0.32,0.96-0.58c0.49-0.53,0.66-1.26,1.02-1.87c0.32-0.55,0.81-0.98,1.34-1.32
			c1.07-0.71,2.32-1.07,3.45-1.67c0.58-0.31,1.12-0.67,1.57-1.15c0.52-0.56,0.9-1.25,1.12-1.98c0.46-1.47,0.34-3.04,0.21-4.54
			c-0.12-1.51-0.15-3.01,0.16-4.5c0.15-0.69,0.36-1.36,0.63-2c0.26-0.63,0.61-1.22,0.92-1.83c0.27-0.53,0.42-1.3-0.35-1.41
			c-0.68-0.1-1.12,0.51-1.45,0.98c-1.39,1.97-1.91,4.34-2.08,6.71c-0.19,2.66,0.07,4.6-2.16,6.52c-0.82,0.71-1.72,1.33-2.56,2.02
			c-1.72,1.42-4.72,4.15-3.08,6.6C151.75,170.47,151.85,170.49,151.94,170.49z"/>
		<path class="st6" d="M166.23,145.78c0.35,0.76,1.79,0.59,2.43,0.53c1.06-0.11,2.11-0.38,3.12-0.7c2.08-0.64,4.07-1.61,5.62-3.17
			c0.82-0.82,1.48-1.78,1.94-2.84c0.24-0.56,0.42-1.15,0.54-1.74c0.12-0.59,0.22-1.22,0.14-1.83c-0.05-0.42-0.19-0.84-0.51-1.13
			c-0.28-0.25-0.67-0.34-1.04-0.34c-0.35,0-0.7,0.07-1.03,0.18c-1.14,0.67-1.8,2.1-2.12,3.36c-0.33,1.28-0.45,2.63-1.44,3.59
			c-0.94,0.91-2.21,1.41-3.43,1.85c-0.74,0.27-4.61,1.17-4.24,2.19C166.21,145.74,166.22,145.76,166.23,145.78z"/>
		<path class="st6" d="M155.84,174.98c-0.15-0.71-0.57-1.35-1.11-1.82c-0.51-0.45-1.23-0.74-1.91-0.58
			c-0.9,0.21-1.59,1.06-1.73,1.96c-0.14,0.88,0.27,1.91,0.89,2.53c0.04,0.04,0.09,0.08,0.13,0.12c0.21,0.26,0.47,0.47,0.79,0.61
			c0.8,0.34,1.72-0.09,2.3-0.65C155.77,176.59,156,175.77,155.84,174.98z"/>
	</g>
</g>
<g id="_x36_" class="st0">
	<g class="st1">
		<g>
			<path class="st7" d="M205.51,154.39c-0.4-0.45-0.82-0.88-1.26-1.29c-1.94-1.81-4.12-3.61-5.11-6.15
				c-1.22-3.11-0.28-6.61-0.67-9.85c-0.64-5.31-5.21-8.41-10.03-9.8c-4.49-1.3-10.96-1.98-14.49,1.76c-1.37,1.45-2.15,3.27-2.88,5.1
				c-0.87,2.19-1.71,1.61-3.77,2.09c-1.23,0.29-2.43,0.71-3.55,1.3c-2.14,1.12-4.02,2.82-5.13,4.99c-0.82,1.61-1.04,3.38-1.16,5.17
				c-0.11,1.69-0.16,3.46-0.9,5.03c-0.74,1.57-2.21,2.72-3.46,3.87c-1.1,1.02-2.23,2.03-3.17,3.2c-0.89,1.11-1.61,2.37-1.92,3.77
				c-0.36,1.65-0.2,3.34,0.22,4.96c0.74,2.86,2.33,5.5,4.88,7.09c2.33,1.46,5.14,1.93,7.85,1.81c1.46-0.07,2.92-0.3,4.34-0.66
				c1.69-0.43,3.29-1.09,4.93-1.7c1.8-0.67,3.66-1.12,5.51-0.36c1.59,0.65,2.84,1.92,4.12,3.02c1.28,1.1,2.67,2.01,4.33,2.4
				c1.43,0.33,2.93,0.43,4.4,0.38c6.21-0.2,12.61-3.1,16.65-7.86c2.08-2.45,3.5-5.43,3.79-8.66
				C209.33,160.29,207.88,157.05,205.51,154.39z"/>
			<path class="st3" d="M205.51,154.39c-0.4-0.45-0.82-0.88-1.26-1.29c-1.94-1.81-4.12-3.61-5.11-6.15
				c-1.22-3.11-0.28-6.61-0.67-9.85c-0.64-5.31-5.21-8.41-10.03-9.8c-0.33-0.1-0.67-0.19-1.03-0.28c0.94,0.4,1.84,0.9,2.67,1.5
				c2.18,1.58,4.02,3.78,4.57,6.47c0.53,2.6-0.13,5.26-1.07,7.68c-0.85,2.17-1.9,4.46-1.37,6.84c0.44,1.95,1.91,3.39,3.42,4.59
				c2.02,1.62,4.31,2.88,6.19,4.67c1.77,1.69,3.17,3.78,3.66,6.21c0.47,2.34,0.16,4.82-0.82,6.99c-0.57,1.27-1.36,2.43-2.3,3.46
				c1.04-0.83,2.01-1.75,2.86-2.76c2.08-2.45,3.5-5.43,3.79-8.66C209.33,160.29,207.88,157.05,205.51,154.39z"/>
			<path class="st3" d="M184.43,179.58c-1.17-0.64-2.18-1.52-3.07-2.5c-1.83-2.02-3.18-4.49-5.27-6.26c-1-0.85-2.18-1.46-3.47-1.71
				c-1.24-0.24-2.53-0.12-3.75,0.2c-1.39,0.36-2.68,0.98-3.97,1.59c-1.29,0.61-2.59,1.23-3.93,1.72c-2.59,0.95-5.51,1.45-8.08,0.15
				c-2.13-1.08-3.61-3.08-4.33-5.33c-0.39-1.2-0.57-2.46-0.6-3.72c-0.32,1.6-0.16,3.24,0.25,4.81c0.74,2.86,2.33,5.5,4.88,7.09
				c2.33,1.46,5.14,1.93,7.85,1.81c1.46-0.07,2.92-0.3,4.34-0.66c1.69-0.43,3.29-1.09,4.93-1.7c1.8-0.67,3.66-1.12,5.51-0.36
				c1.59,0.65,2.84,1.92,4.12,3.02c1.28,1.1,2.67,2.01,4.33,2.4c0.9,0.21,1.82,0.32,2.75,0.37
				C186.05,180.31,185.21,180.01,184.43,179.58z"/>
		</g>
		<g>
			<path class="st7" d="M214.02,140.22c-1.22-1.26-2.92-1.8-4.65-1.83c-2.25-0.04-4.76,0.78-6.3,2.48
				c-1.37,1.52-1.87,3.78-1.26,5.74c1.25,4.04,7.29,6.27,10.77,3.75c1.6-1.16,2.63-3,2.92-4.94
				C215.79,143.57,215.34,141.58,214.02,140.22z"/>
			<path class="st7" d="M207.52,140.68c-0.29-0.3-0.69-0.43-1.1-0.44c-0.53-0.01-1.13,0.19-1.5,0.59c-0.33,0.36-0.45,0.9-0.3,1.37
				c0.3,0.96,1.73,1.49,2.56,0.89c0.38-0.28,0.63-0.71,0.7-1.18C207.94,141.48,207.83,141.01,207.52,140.68z"/>
			<path class="st8" d="M214.02,140.22c-1.22-1.26-2.92-1.8-4.65-1.83c-2.25-0.04-4.76,0.78-6.3,2.48
				c-1.37,1.52-1.87,3.78-1.26,5.74c1.25,4.04,7.29,6.27,10.77,3.75c1.6-1.16,2.63-3,2.92-4.95
				C215.79,143.57,215.34,141.58,214.02,140.22z M211.77,143.66c-0.18,1.2-0.82,2.33-1.8,3.05c-2.15,1.56-5.87,0.18-6.64-2.31
				c-0.38-1.21-0.07-2.6,0.78-3.54c0.94-1.05,2.5-1.55,3.88-1.53c1.07,0.02,2.11,0.35,2.87,1.13
				C211.66,141.3,211.94,142.52,211.77,143.66z"/>
		</g>
		<path class="st7" d="M151.14,163.84c0.37,0,0.69-0.31,0.93-0.56c0.48-0.51,0.64-1.22,0.99-1.81c0.31-0.53,0.79-0.94,1.29-1.28
			c1.04-0.68,2.24-1.04,3.34-1.61c0.56-0.3,1.08-0.65,1.51-1.11c0.5-0.54,0.87-1.21,1.08-1.92c0.44-1.42,0.33-2.94,0.21-4.39
			c-0.12-1.46-0.15-2.91,0.16-4.35c0.14-0.66,0.35-1.31,0.61-1.94c0.25-0.61,0.59-1.18,0.89-1.76c0.26-0.52,0.41-1.26-0.34-1.37
			c-0.65-0.09-1.08,0.5-1.4,0.95c-1.34,1.9-1.85,4.19-2.01,6.48c-0.19,2.57,0.07,4.44-2.09,6.3c-0.8,0.68-1.66,1.28-2.47,1.95
			c-1.66,1.37-4.57,4.01-2.98,6.37C150.96,163.82,151.05,163.84,151.14,163.84z"/>
		<path class="st7" d="M164.95,139.96c0.34,0.74,1.73,0.57,2.35,0.51c1.03-0.1,2.04-0.37,3.02-0.67c2.01-0.62,3.93-1.56,5.43-3.06
			c0.79-0.79,1.43-1.72,1.87-2.75c0.23-0.54,0.4-1.11,0.52-1.69c0.12-0.57,0.21-1.18,0.14-1.77c-0.05-0.4-0.19-0.81-0.5-1.09
			c-0.27-0.24-0.65-0.33-1-0.33c-0.34,0-0.67,0.07-1,0.17c-1.11,0.65-1.74,2.03-2.05,3.25c-0.32,1.24-0.43,2.54-1.39,3.47
			c-0.91,0.88-2.14,1.37-3.31,1.79c-0.72,0.26-4.45,1.13-4.1,2.11C164.94,139.92,164.94,139.94,164.95,139.96z"/>
		<path class="st7" d="M154.91,168.19c-0.14-0.69-0.55-1.3-1.07-1.76c-0.5-0.44-1.19-0.71-1.85-0.56c-0.87,0.2-1.54,1.02-1.67,1.89
			c-0.13,0.85,0.26,1.84,0.86,2.44c0.04,0.04,0.08,0.08,0.13,0.12c0.2,0.25,0.45,0.45,0.76,0.59c0.77,0.33,1.66-0.09,2.22-0.63
			C154.85,169.74,155.07,168.94,154.91,168.19z"/>
	</g>
</g>
<g id="_x35_" class="st0">
	<g class="st1">
		<g>
			<path class="st9" d="M202.46,163.71c-0.55,0.23-1.14,0.37-1.78,0.38c-0.93,0.02-1.88-0.08-2.8,0.07
				c-0.92,0.16-1.86,0.64-2.23,1.49c-0.67,1.5,0.51,3.1,0.76,4.56c0.21,1.25,0.09,2.61-1.08,3.36c-0.78,0.5-1.73,0.62-2.66,0.64
				c-3.12,0.05-6.22-0.94-8.57-3.02c-1.35-1.19-2.47-2.65-4.26-3.16c-2.11-0.6-4.45,0.02-6.46,0.71c-4.68,1.61-9.87,2.79-13.27-1.95
				c-2.01-2.8-2.09-6.83-0.21-9.71c1.96-2.99,6.63-5.82,3.53-9.76c-0.94-1.2-2.23-2.35-2.24-4.01c-0.02-5.73,9.77-1.05,12.58-2.72
				c5.11-3.05,6.78-9.26,13.11-10.72c2.82-0.65,5.86-0.28,8.45,1.03c1.74,0.88,3.35,2.28,4.13,4.1c0.99,2.32-0.31,4.45-0.78,6.7
				c-0.57,2.73,0.6,4.52,2.75,6.14c2.64,1.99,4.79,5.07,5.04,8.43C206.67,159.11,205.15,162.57,202.46,163.71z"/>
			<path class="st9" d="M162.19,155.39c0.85-0.47,1.72-0.92,2.55-1.43c1.41-0.87,2.98-2.13,2.69-3.98
				c-0.11-0.69-0.44-1.24-0.98-1.68c-0.54-0.43-1.18-0.73-1.82-1c-0.61-0.26-1.24-0.49-1.85-0.76c0.22,0.26,0.43,0.51,0.64,0.77
				c2.99,3.79-1.23,6.56-3.3,9.43C160.75,156.2,161.47,155.78,162.19,155.39z"/>
			<path class="st9" d="M206.46,156.27c-0.26-3.36-2.41-6.45-5.04-8.43c-2.15-1.62-3.32-3.41-2.75-6.14
				c0.47-2.25,1.77-4.39,0.78-6.7c-0.6-1.4-1.68-2.54-2.93-3.4c0.19,0.22,0.36,0.45,0.52,0.69c0.51,0.79,0.83,1.7,0.9,2.64
				c0.08,1.07-0.18,2.13-0.61,3.1c-0.25,0.56-0.58,1.09-0.86,1.64c-0.25,0.49-0.49,1-0.69,1.51c-0.34,0.89-0.6,1.84-0.59,2.8
				c0.01,2.1,1.44,3.66,3.11,4.76c0.93,0.61,1.9,1.15,2.81,1.79c0.88,0.62,1.72,1.3,2.43,2.1c1.39,1.58,2.14,3.7,1.58,5.79
				c-0.51,1.94-2.08,3.9-4.2,4.06c-0.77,0.06-1.52-0.12-2.26-0.32c-0.87-0.23-1.74-0.5-2.63-0.65c-0.77-0.13-1.64-0.2-2.36,0.15
				c-0.77,0.38-1.3,1.26-1.34,2.11c-0.05,1.01,0.49,1.96,0.98,2.8c0.52,0.9,1.12,1.79,1.41,2.8c0.22,0.76,0.17,1.58-0.02,2.34
				c-0.11,0.46-0.3,0.93-0.65,1.27c-0.65,0.63-1.6,0.51-2.37,0.22c-1.16-0.44-2.19-1.19-3.15-1.95c-1.12-0.89-2.18-1.86-3.22-2.85
				c-0.86-0.82-1.69-1.67-2.55-2.49c-0.24-0.23-0.53-0.51-0.77-0.69c-0.13-0.1-0.27-0.17-0.42-0.24c-0.58-0.26-1.2-0.43-1.83-0.49
				c-2.44-0.24-4.68,1.07-6.73,2.21c-1.03,0.57-2.05,1.15-3.14,1.59c-0.86,0.35-1.75,0.61-2.66,0.79c-1.59,0.3-3.32,0.35-4.88-0.15
				c3.23,2.11,7.32,1.1,11.08-0.19c2.01-0.69,4.35-1.31,6.46-0.71c1.79,0.51,2.91,1.97,4.26,3.16c2.35,2.08,5.45,3.08,8.57,3.02
				c0.92-0.02,1.88-0.14,2.66-0.64c1.17-0.75,1.29-2.1,1.08-3.36c-0.24-1.46-1.43-3.06-0.76-4.56c0.38-0.85,1.31-1.34,2.23-1.49
				c0.92-0.16,1.86-0.05,2.8-0.07c0.64-0.02,1.23-0.15,1.78-0.38C205.15,162.57,206.67,159.11,206.46,156.27z"/>
			<path class="st9" d="M208.76,168.18c-0.53-1.52-1.96-2.81-3.64-2.67c-1.67,0.13-3.46,1.03-4.33,2.5
				c-0.72,1.21-0.84,2.75-0.33,4.06c0.38,0.96,1.11,1.81,2.06,2.2c3.33,1.37,7.18-2.37,6.35-5.72
				C208.84,168.42,208.81,168.3,208.76,168.18z"/>
			<path class="st9" d="M208.87,168.55c-0.03-0.12-0.07-0.25-0.11-0.37c-0.53-1.52-1.96-2.81-3.64-2.67
				c-1.67,0.13-3.46,1.03-4.33,2.5c-0.72,1.21-0.84,2.75-0.33,4.06c0.38,0.96,1.11,1.81,2.06,2.2
				C205.85,175.63,209.71,171.89,208.87,168.55z M202.37,171.89c-0.53-0.22-0.93-0.68-1.14-1.22c-0.28-0.72-0.21-1.58,0.18-2.25
				c0.48-0.81,1.47-1.31,2.4-1.38c0.93-0.07,1.72,0.64,2.01,1.48c0.02,0.07,0.04,0.13,0.06,0.2
				C206.34,170.58,204.21,172.65,202.37,171.89z"/>
			<g>
				<path class="st9" d="M209.59,162.46C209.59,162.46,209.6,162.46,209.59,162.46c0,0-0.01,0-0.02,0
					C209.58,162.46,209.59,162.46,209.59,162.46z"/>
				<path class="st9" d="M210.83,161.24c-0.16-0.54-0.62-0.94-1.24-1.05c-0.79-0.13-1.89,0.29-2.2,1.07
					c-0.31,0.78,0.33,1.67,1.12,1.95c0.45,0.16,0.96,0.19,1.4,0.01C210.68,162.93,211.07,162.02,210.83,161.24z"/>
				<path class="st9" d="M209.71,162.43C209.71,162.43,209.71,162.43,209.71,162.43c0,0-0.01,0-0.01,0
					C209.71,162.43,209.71,162.43,209.71,162.43z"/>
			</g>
			<path class="st9" d="M160.26,148.99c-0.12-1.01-0.62-2.09-1.54-2.61c-1.57-0.88-3.71-0.04-4.89,1.13
				c-0.77,0.77-1.04,1.62-0.83,2.69c0.2,1.01,0.67,2,1.45,2.67c1.49,1.27,3.94,0.91,5.08-0.66
				C160.2,151.3,160.4,150.1,160.26,148.99z"/>
			<path class="st9" d="M160.26,148.99c-0.12-1.01-0.62-2.09-1.54-2.61c-1.57-0.88-3.71-0.04-4.89,1.13
				c-0.77,0.77-1.04,1.62-0.83,2.69c0.2,1.01,0.67,2,1.45,2.67c1.49,1.27,3.94,0.91,5.08-0.66
				C160.2,151.3,160.4,150.1,160.26,148.99z M157.6,151.01c-0.7,0.96-2.19,1.18-3.1,0.4c-0.48-0.41-0.77-1.01-0.89-1.63
				c-0.13-0.66,0.03-1.17,0.5-1.64c0.72-0.71,2.03-1.23,2.98-0.69c0.56,0.32,0.87,0.97,0.94,1.59
				C158.13,149.71,158.01,150.45,157.6,151.01z"/>
		</g>
		<path class="st9" d="M181.55,136.31c-0.4-0.47-1.03-0.29-1.44,0.05c-0.48,0.4-0.84,0.96-1.13,1.51c-0.01,0.02-0.02,0.05-0.03,0.07
			c-0.34,0.34-0.66,0.69-0.97,1.07c-0.63,0.75-1.31,1.35-2.14,1.86c-0.82,0.51-1.7,0.91-2.65,1.07c-0.99,0.16-2.06,0.03-3.02-0.22
			c-0.73-0.19-1.53-0.5-2.3-0.37c-0.51,0.09-1.06,0.44-1.2,0.96c-0.26,0.92,0.93,1.73,1.54,2.18c0.73,0.54,1.55,1.09,2.44,1.32
			c1.63,0.43,3.35,0.24,4.93-0.32c1.54-0.55,2.99-1.51,4.05-2.76c0.5-0.58,0.89-1.22,1.24-1.91c0.37-0.73,0.72-1.49,0.91-2.29
			C181.94,137.83,182.05,136.91,181.55,136.31z"/>
		<path class="st9" d="M185.4,132.61c-0.25-0.55-0.96-0.73-1.51-0.57c-0.17,0.05-0.33,0.12-0.48,0.2c-0.32,0.04-0.63,0.34-0.8,0.58
			c-0.29,0.41-0.46,0.99-0.34,1.49c0.05,0.23,0.2,0.47,0.42,0.59c0.26,0.14,0.55,0.16,0.84,0.11c0.55-0.09,1.09-0.45,1.45-0.87
			C185.31,133.73,185.64,133.15,185.4,132.61z"/>
	</g>
</g>
<g id="_x34_" class="st0">
	<g class="st1">
		<g>
			<path class="st10" d="M215.55,172.2c-1,0.42-2.09,0.67-3.25,0.7c-1.71,0.04-3.43-0.15-5.11,0.14c-1.68,0.29-3.39,1.17-4.09,2.73
				c-1.22,2.75,0.94,5.67,1.38,8.34c0.38,2.29,0.16,4.77-1.97,6.14c-1.42,0.91-3.17,1.13-4.86,1.16c-5.71,0.1-11.37-1.72-15.67-5.53
				c-2.46-2.18-4.51-4.84-7.79-5.77c-3.86-1.1-8.14,0.03-11.81,1.29c-8.55,2.94-18.05,5.1-24.27-3.56
				c-3.67-5.11-3.83-12.49-0.38-17.75c3.58-5.47,12.13-10.64,6.45-17.85c-1.73-2.19-4.08-4.3-4.09-7.34
				c-0.04-10.48,17.86-1.92,22.99-4.98c9.35-5.57,12.39-16.94,23.96-19.6c5.16-1.19,10.72-0.51,15.44,1.88
				c3.19,1.61,6.13,4.16,7.56,7.5c1.81,4.23-0.57,8.14-1.43,12.25c-1.05,5,1.1,8.27,5.03,11.23c4.82,3.63,8.75,9.27,9.22,15.41
				C223.25,163.78,220.46,170.11,215.55,172.2z"/>
			<path class="st10" d="M141.93,156.98c1.56-0.86,3.15-1.67,4.67-2.61c2.57-1.59,5.45-3.89,4.92-7.28c-0.2-1.27-0.8-2.27-1.79-3.07
				c-0.98-0.79-2.17-1.34-3.32-1.82c-1.12-0.47-2.26-0.89-3.38-1.38c0.4,0.47,0.79,0.94,1.16,1.4c5.46,6.94-2.25,11.99-6.03,17.23
				C139.29,158.47,140.62,157.71,141.93,156.98z"/>
			<path class="st10" d="M222.86,158.6c-0.47-6.15-4.4-11.78-9.22-15.41c-3.93-2.96-6.07-6.24-5.03-11.23
				c0.86-4.11,3.24-8.02,1.43-12.25c-1.09-2.55-3.07-4.64-5.36-6.21c0.34,0.4,0.66,0.82,0.95,1.27c0.94,1.45,1.52,3.1,1.65,4.82
				c0.15,1.96-0.32,3.9-1.12,5.68c-0.46,1.03-1.06,1.99-1.58,3c-0.46,0.9-0.89,1.82-1.25,2.77c-0.63,1.63-1.1,3.36-1.09,5.11
				c0.02,3.84,2.63,6.7,5.68,8.71c1.69,1.12,3.47,2.1,5.14,3.27c1.6,1.13,3.14,2.37,4.43,3.84c2.54,2.89,3.91,6.76,2.9,10.58
				c-0.94,3.54-3.8,7.13-7.68,7.43c-1.4,0.11-2.79-0.23-4.13-0.58c-1.59-0.42-3.18-0.91-4.8-1.19c-1.41-0.24-3-0.36-4.32,0.28
				c-1.42,0.69-2.37,2.3-2.45,3.85c-0.1,1.84,0.9,3.58,1.8,5.12c0.95,1.64,2.04,3.27,2.57,5.12c0.4,1.39,0.3,2.89-0.04,4.28
				c-0.21,0.84-0.56,1.71-1.19,2.32c-1.18,1.15-2.92,0.93-4.34,0.39c-2.11-0.8-4-2.18-5.76-3.57c-2.06-1.62-3.99-3.4-5.88-5.22
				c-1.57-1.5-3.09-3.05-4.66-4.56c-0.44-0.42-0.97-0.93-1.41-1.27c-0.24-0.19-0.49-0.31-0.77-0.43c-1.06-0.47-2.2-0.79-3.35-0.9
				c-4.46-0.44-8.56,1.95-12.31,4.04c-1.87,1.05-3.75,2.1-5.74,2.91c-1.57,0.64-3.21,1.12-4.87,1.44c-2.91,0.55-6.07,0.64-8.92-0.27
				c5.9,3.86,13.38,2.01,20.26-0.36c3.67-1.26,7.95-2.4,11.81-1.29c3.28,0.94,5.33,3.59,7.79,5.77c4.3,3.81,9.97,5.63,15.67,5.53
				c1.69-0.03,3.44-0.25,4.86-1.16c2.13-1.37,2.35-3.84,1.97-6.14c-0.44-2.66-2.61-5.59-1.38-8.34c0.69-1.56,2.4-2.45,4.09-2.73
				c1.68-0.29,3.41-0.09,5.11-0.14c1.17-0.03,2.25-0.28,3.25-0.7C220.46,170.11,223.25,163.78,222.86,158.6z"/>
			<path class="st10" d="M227.07,180.37c-0.98-2.79-3.58-5.13-6.66-4.89c-3.04,0.24-6.33,1.89-7.92,4.56
				c-1.31,2.21-1.54,5.03-0.6,7.42c0.69,1.76,2.03,3.3,3.77,4.02c6.08,2.5,13.13-4.33,11.6-10.45
				C227.22,180.82,227.15,180.6,227.07,180.37z"/>
			<path class="st10" d="M227.27,181.05c-0.06-0.23-0.12-0.45-0.2-0.67c-0.98-2.79-3.58-5.13-6.66-4.89
				c-3.04,0.24-6.33,1.89-7.92,4.56c-1.31,2.21-1.54,5.03-0.6,7.42c0.69,1.76,2.03,3.3,3.77,4.02
				C221.75,194,228.8,187.16,227.27,181.05z M215.38,187.15c-0.97-0.4-1.71-1.25-2.09-2.22c-0.52-1.32-0.39-2.88,0.33-4.11
				c0.88-1.48,2.69-2.39,4.38-2.52c1.7-0.14,3.14,1.16,3.68,2.7c0.04,0.12,0.08,0.25,0.11,0.37
				C222.64,184.76,218.75,188.54,215.38,187.15z"/>
			<g>
				<path class="st11" d="M228.59,169.92c0,0,0.01,0,0.01,0c-0.02,0-0.03,0-0.04,0C228.56,169.92,228.58,169.92,228.59,169.92z"/>
				<path class="st10" d="M230.86,167.68c-0.3-0.98-1.13-1.72-2.28-1.91c-1.44-0.23-3.45,0.52-4.02,1.96
					c-0.56,1.42,0.6,3.05,2.04,3.57c0.82,0.3,1.75,0.35,2.57,0.02C230.57,170.77,231.29,169.11,230.86,167.68z"/>
			</g>
			<path class="st10" d="M138.41,145.3c-0.23-1.85-1.14-3.82-2.82-4.76c-2.87-1.61-6.79-0.07-8.94,2.07
				c-1.41,1.4-1.89,2.95-1.51,4.92c0.36,1.85,1.22,3.65,2.65,4.88c2.72,2.32,7.21,1.67,9.29-1.2
				C138.3,149.52,138.65,147.32,138.41,145.3z"/>
			<path class="st10" d="M138.41,145.3c-0.23-1.85-1.14-3.82-2.82-4.76c-2.87-1.61-6.79-0.07-8.94,2.07
				c-1.41,1.4-1.89,2.95-1.51,4.92c0.36,1.85,1.22,3.65,2.65,4.88c2.72,2.32,7.21,1.67,9.29-1.2
				C138.3,149.52,138.65,147.32,138.41,145.3z M133.54,148.98c-1.27,1.75-4.01,2.15-5.67,0.73c-0.88-0.75-1.4-1.85-1.62-2.98
				c-0.23-1.2,0.06-2.15,0.92-3c1.31-1.3,3.7-2.25,5.46-1.26c1.03,0.58,1.58,1.78,1.72,2.91
				C134.5,146.62,134.29,147.96,133.54,148.98z"/>
		</g>
		<path class="st10" d="M177.33,122.11c-0.72-0.86-1.88-0.53-2.64,0.1c-0.88,0.72-1.53,1.76-2.06,2.75
			c-0.02,0.04-0.04,0.08-0.06,0.12c-0.62,0.62-1.2,1.26-1.77,1.95c-1.14,1.37-2.39,2.47-3.91,3.41c-1.5,0.93-3.1,1.66-4.85,1.95
			c-1.81,0.3-3.76,0.05-5.52-0.41c-1.34-0.35-2.79-0.92-4.2-0.67c-0.92,0.16-1.93,0.81-2.2,1.75c-0.48,1.67,1.7,3.16,2.82,3.98
			c1.34,0.99,2.83,1.99,4.45,2.41c2.98,0.78,6.13,0.45,9.01-0.58c2.82-1.01,5.46-2.76,7.41-5.04c0.91-1.07,1.63-2.24,2.27-3.48
			c0.68-1.34,1.32-2.72,1.67-4.19C178.04,124.89,178.24,123.2,177.33,122.11z"/>
		<path class="st10" d="M184.35,115.35c-0.46-1.01-1.76-1.33-2.76-1.05c-0.31,0.09-0.6,0.21-0.88,0.37
			c-0.58,0.08-1.16,0.62-1.46,1.05c-0.52,0.75-0.84,1.81-0.63,2.72c0.1,0.43,0.37,0.87,0.77,1.08c0.48,0.25,1,0.29,1.53,0.21
			c1.01-0.16,1.99-0.82,2.65-1.59C184.2,117.4,184.8,116.33,184.35,115.35z"/>
	</g>
</g>
<g id="_x33_" class="st0">
	<g class="st1">
		<g>
			<path class="st12" d="M216.75,154.68c0.04-0.02,0.08-0.04,0.12-0.06c6.64-3.51,10.9-14.09,3.78-19.33
				c-5.09-3.74-10.69-0.32-15.96,0.91c-6.75,1.56-3.63-6.96-3.93-10.5c-0.17-1.93-0.98-3.89-2.56-5.01
				c-6.76-4.78-7.33,8.71-12.5,8.3c-0.41-0.03-0.72-0.38-0.99-0.7c-4.74-5.72-9.15-11.58-17.54-8.01
				c-4.34,1.84-6.48,6.32-4.57,10.69c0.92,2.12,1.54,4.53-0.02,6.5c-3.05,3.85-8.88,3.71-13.14,5.15c-2.39,0.81-4.65,2.22-6.3,4.14
				c-3.06,3.55-3.8,8.4-2.67,12.87c0.58,2.3,1.63,4.5,3.01,6.42c1.52,2.1,3.5,4.31,2.66,7.11c-0.45,1.5-1.44,2.75-2.19,4.1
				c-0.74,1.35-1.37,2.75-1.67,4.26c-0.58,2.91,0.36,5.99,2.25,8.25c3.46,4.14,9.77,5.65,14.88,4.3c2.71-0.71,5.11-2.16,7.42-3.7
				c2.21-1.47,4.46-3.22,7.02-4.03c1.4-0.44,2.91-0.59,4.37-0.43c1.59,0.17,2.98,0.89,4.34,1.69c1.39,0.82,2.73,1.75,4.16,2.5
				c1.48,0.77,3.05,1.4,4.67,1.8c2.79,0.7,5.7,0.87,8.45-0.08c2.33-0.81,4.45-2.44,5.47-4.74c0.76-1.71,0.54-3.51,0.19-5.28
				c-0.3-1.52-1.38-4.14-0.56-5.57c1.36-2.35,5.73-1.15,7.88-1.74c2.66-0.72,3.93-1.74,4.65-4.32
				C219.01,164.64,209.35,158.48,216.75,154.68z"/>
			<path class="st12" d="M216.75,154.68c0.04-0.02,0.08-0.04,0.12-0.06c6.64-3.51,10.9-14.09,3.78-19.33
				c-5.09-3.74-10.69-0.32-15.96,0.91c-6.75,1.56-3.63-6.96-3.93-10.5c-0.17-1.93-0.98-3.89-2.56-5.01
				c-6.76-4.78-7.33,8.71-12.5,8.3c-0.41-0.03-0.72-0.38-0.99-0.7c-4.74-5.72-9.15-11.58-17.54-8.01c-3.21,1.36-5.21,4.17-5.26,7.31
				c0.2-0.49,0.44-0.98,0.72-1.44c1.33-2.2,3.44-3.94,5.89-4.72c2.18-0.69,4.78-0.63,6.65,0.82c1.74,1.36,2.64,3.54,3.44,5.53
				c0.47,1.17,1.16,2.29,2.26,2.98c0.89,0.55,1.93,0.74,2.96,0.62c2.25-0.26,4.33-1.77,5.69-3.52c1.31-1.68,2.38-3.6,4.05-4.96
				c0.71-0.58,1.57-1.06,2.51-1.04c0.89,0.01,1.73,0.48,2.35,1.09c0.96,0.95,1.21,2.3,1.12,3.6c-0.1,1.54-0.56,3.03-1,4.5
				c-0.41,1.38-0.9,2.8-0.97,4.25c-0.06,1.14,0.28,2.19,1.39,2.69c0.24,0.11,0.49,0.18,0.74,0.24c0.54,0.02,1.08-0.03,1.61-0.11
				c2.52-0.39,4.91-1.44,7.28-2.35c1-0.39,2.02-0.8,3.08-1.02c1.54-0.31,3.15-0.32,4.69,0.03c1.45,0.33,2.83,0.98,3.94,1.98
				c1.15,1.04,1.94,2.42,2.28,3.93c0.37,1.64,0.3,3.44-0.28,5.02c-0.52,1.41-1.44,2.62-2.59,3.59c-1.19,1.01-2.57,1.77-3.99,2.41
				c-0.73,0.33-1.47,0.63-2.22,0.91c-0.81,0.31-1.64,0.56-2.41,0.94c-1.37,0.68-2.53,1.8-2.75,3.37c-0.24,1.64,0.51,3.27,1.4,4.6
				c0.9,1.35,2.13,2.42,3.22,3.61c1.04,1.13,2.05,2.42,2.33,3.97c0.24,1.31-0.03,3-1.08,3.92c-0.88,0.77-2.1,0.79-3.19,0.58
				c-0.75-0.15-1.48-0.39-2.2-0.68c-1.84-0.28-3.52-1.39-5.4-1.48c-1.98-0.1-3.42,1.6-3.87,3.43c0.05,0.96,0.42,1.9,0.83,2.74
				c0.58,1.19,1.3,2.31,1.96,3.46c0.75,1.31,1.41,2.68,1.34,4.24c-0.16,3.28-3.32,5.6-6.32,6.17c-3.15,0.59-6.32-0.58-8.87-2.4
				c-1.74-1.24-3.29-2.82-4.52-4.59c-1.16-1.41-2.37-2.9-4.07-3.6c-2.46-1.02-5.35,0.04-7.56,1.22c-2.48,1.32-4.63,3.15-6.84,4.87
				c-2.18,1.7-4.45,3.35-7.05,4.36c-2.26,0.88-4.81,1.24-7.22,0.99c-2.3-0.23-4.59-1.08-6.16-2.84c-1.68-1.89-2.64-4.64-2.11-7.15
				c0.52-2.44,2.21-4.44,3.78-6.29c0.88-1.04,1.8-2.06,2.57-3.18c0.8-1.15,1.44-2.5,1.31-3.93c-0.1-1.2-0.77-2.27-1.54-3.17
				c-0.9-1.05-1.97-1.94-3.02-2.83c-1.09-0.92-2.14-1.85-3.02-2.98c-0.8-1.04-1.45-2.18-1.93-3.4c-0.51-1.32-0.78-2.71-0.83-4.11
				c-0.52,2.33-0.45,4.81,0.15,7.18c0.58,2.3,1.63,4.5,3.01,6.42c1.52,2.1,3.5,4.31,2.66,7.11c-0.45,1.5-1.44,2.75-2.19,4.1
				c-0.74,1.35-1.37,2.75-1.67,4.26c-0.58,2.91,0.36,5.99,2.25,8.25c3.46,4.14,9.77,5.65,14.88,4.3c2.71-0.71,5.11-2.16,7.42-3.7
				c2.21-1.47,4.46-3.22,7.02-4.03c1.4-0.44,2.91-0.59,4.37-0.43c1.59,0.17,2.98,0.89,4.34,1.69c1.39,0.82,2.73,1.75,4.16,2.5
				c1.48,0.77,3.05,1.4,4.67,1.8c2.79,0.7,5.7,0.87,8.45-0.08c2.33-0.81,4.45-2.44,5.47-4.74c0.76-1.71,0.54-3.51,0.19-5.28
				c-0.3-1.52-1.38-4.14-0.56-5.57c1.36-2.35,5.73-1.15,7.88-1.74c2.66-0.72,3.93-1.74,4.65-4.32
				C219.01,164.64,209.35,158.48,216.75,154.68z"/>
			<path class="st12" d="M215,123.62c-0.29-1.57-1.43-2.86-3.52-3.22c-2.94-0.51-5.3,1.73-6.53,4.19c-0.5,1-0.73,2.19-0.37,3.24
				c0.72,2.13,3.4,3,5.44,2.65c1.57-0.27,2.89-1.24,3.82-2.5C214.85,126.62,215.26,125.01,215,123.62z"/>
			<path class="st12" d="M223.97,157.84c-0.63-0.46-1.45-0.72-2.33-0.75c-2.92-0.1-4.42,3.28-2.52,5.52c1.86,2.18,5.28,1.3,6-1.39
				C225.51,159.76,224.97,158.57,223.97,157.84z"/>
			<path class="st12" d="M229.01,152.12c0.15-0.39,0.16-0.78-0.07-1.07c-0.09-0.11-0.24-0.17-0.39-0.21
				c-1.3-0.35-4.21,1.04-2.6,2.62c0.45,0.44,1.17,0.5,1.74,0.24C228.1,153.53,228.75,152.82,229.01,152.12z"/>
		</g>
		<path class="st12" d="M165.23,138.33c-0.93,0.18-1.71,0.98-2.34,1.64c-0.27,0.28-0.52,0.58-0.77,0.89
			c-1.65,1.05-3.49,1.79-5.35,2.36c-2.41,0.74-4.91,1.26-7.25,2.23c-2.11,0.87-4.2,2.11-5.61,3.95c-1.37,1.78-1.75,4.11-0.83,6.18
			c0.72,1.62,3.05,4.66,4.91,2.52c0.63-0.72,0.75-1.77,0.9-2.67c0.07-0.41,0.12-0.84,0.27-1.23c0.03-0.08,0.13-0.25,0.25-0.43
			c0.22-0.33,0.47-0.62,0.75-0.9c1.96-1.97,4.94-2.53,7.37-3.7c1.44-0.69,2.82-1.5,4.15-2.39c1.14-0.76,2.31-1.57,3.2-2.62
			c0.97-1.15,1.58-2.5,1.75-4C166.75,139.16,166.44,138.09,165.23,138.33z"/>
		<path class="st12" d="M168.59,134.98c0-0.11-0.01-0.22-0.04-0.32c0.01-0.14-0.01-0.28-0.05-0.42c-0.04-0.14-0.11-0.28-0.2-0.39
			c-0.1-0.11-0.22-0.23-0.36-0.31c-0.2-0.11-0.34-0.15-0.56-0.17c-0.21-0.02-0.42,0.04-0.61,0.11c-0.36,0.13-0.64,0.4-0.86,0.71
			c-0.09,0.12-0.15,0.26-0.21,0.39c-0.04,0.08-0.06,0.16-0.08,0.24c-0.06,0.28-0.1,0.56-0.02,0.84c0.07,0.25,0.23,0.5,0.46,0.63
			c0.03,0.02,0.06,0.03,0.09,0.04c0.18,0.18,0.43,0.3,0.7,0.28c0.34-0.02,0.66-0.16,0.92-0.37c0.17-0.09,0.32-0.21,0.44-0.34
			C168.43,135.65,168.6,135.32,168.59,134.98z"/>
	</g>
</g>
<g id="_x32_" class="st0">
	<g class="st1">
		<g>
			<path class="st11" d="M212.85,170.58c-0.78,0.33-1.63,0.53-2.54,0.55c-1.33,0.03-2.68-0.12-3.99,0.11
				c-1.31,0.22-2.65,0.91-3.19,2.13c-0.95,2.14,0.73,4.42,1.08,6.5c0.3,1.79,0.13,3.72-1.54,4.79c-1.11,0.71-2.47,0.88-3.79,0.91
				c-4.45,0.08-8.87-1.34-12.23-4.31c-1.92-1.7-3.52-3.77-6.08-4.5c-3.01-0.86-6.35,0.03-9.22,1.01
				c-6.67,2.29-14.08,3.98-18.93-2.78c-2.86-3.99-2.98-9.74-0.3-13.85c2.79-4.27,9.46-8.3,5.03-13.93
				c-1.35-1.71-3.18-3.36-3.19-5.72c-0.03-8.17,13.94-1.5,17.94-3.88c7.3-4.35,9.67-13.21,18.69-15.29
				c4.02-0.93,8.36-0.4,12.05,1.47c2.49,1.26,4.78,3.25,5.9,5.85c1.41,3.3-0.44,6.35-1.12,9.56c-0.82,3.9,0.85,6.45,3.92,8.76
				c3.76,2.83,6.83,7.23,7.19,12.02C218.86,164.01,216.68,168.95,212.85,170.58z"/>
			<path class="st11" d="M155.41,158.71c1.22-0.67,2.46-1.31,3.64-2.04c2.01-1.24,4.25-3.04,3.84-5.68
				c-0.16-0.99-0.62-1.77-1.4-2.39c-0.77-0.62-1.69-1.04-2.59-1.42c-0.87-0.37-1.77-0.7-2.64-1.08c0.31,0.37,0.62,0.73,0.91,1.09
				c4.26,5.41-1.76,9.35-4.7,13.45C153.36,159.87,154.39,159.27,155.41,158.71z"/>
			<path class="st11" d="M218.55,159.97c-0.37-4.8-3.43-9.19-7.19-12.02c-3.07-2.31-4.74-4.87-3.92-8.76
				c0.67-3.21,2.53-6.26,1.12-9.56c-0.85-1.99-2.39-3.62-4.18-4.84c0.27,0.31,0.52,0.64,0.74,0.99c0.73,1.13,1.19,2.42,1.29,3.76
				c0.11,1.53-0.25,3.04-0.87,4.43c-0.36,0.8-0.83,1.56-1.23,2.34c-0.36,0.7-0.69,1.42-0.98,2.16c-0.49,1.27-0.85,2.62-0.85,3.99
				c0.02,2.99,2.06,5.22,4.43,6.8c1.32,0.87,2.71,1.64,4.01,2.55c1.25,0.88,2.45,1.85,3.46,3c1.98,2.25,3.05,5.28,2.26,8.25
				c-0.73,2.76-2.97,5.57-5.99,5.79c-1.09,0.08-2.17-0.18-3.23-0.45c-1.24-0.33-2.48-0.71-3.75-0.93c-1.1-0.19-2.34-0.28-3.37,0.22
				c-1.1,0.54-1.85,1.79-1.91,3.01c-0.07,1.44,0.7,2.79,1.4,4c0.74,1.28,1.59,2.55,2.01,3.99c0.31,1.09,0.24,2.25-0.03,3.34
				c-0.16,0.66-0.43,1.33-0.93,1.81c-0.92,0.9-2.28,0.72-3.39,0.31c-1.65-0.62-3.12-1.7-4.49-2.78c-1.6-1.27-3.11-2.65-4.59-4.07
				c-1.22-1.17-2.41-2.38-3.64-3.56c-0.35-0.33-0.76-0.73-1.1-0.99c-0.19-0.14-0.38-0.24-0.6-0.34c-0.83-0.37-1.71-0.62-2.62-0.7
				c-3.48-0.34-6.68,1.52-9.6,3.15c-1.46,0.82-2.93,1.64-4.48,2.27c-1.22,0.5-2.5,0.87-3.8,1.12c-2.27,0.43-4.73,0.5-6.96-0.21
				c4.6,3.01,10.44,1.56,15.81-0.28c2.87-0.98,6.2-1.87,9.22-1.01c2.56,0.73,4.15,2.8,6.08,4.5c3.36,2.97,7.77,4.39,12.23,4.31
				c1.32-0.02,2.68-0.2,3.79-0.91c1.66-1.07,1.83-3,1.54-4.79c-0.35-2.08-2.03-4.36-1.08-6.5c0.54-1.22,1.87-1.91,3.19-2.13
				c1.31-0.22,2.66-0.07,3.99-0.11c0.91-0.02,1.76-0.22,2.54-0.55C216.68,168.95,218.86,164.01,218.55,159.97z"/>
			<path class="st11" d="M221.84,176.96c-0.76-2.17-2.8-4-5.19-3.81c-2.38,0.19-4.94,1.48-6.18,3.56c-1.02,1.72-1.2,3.92-0.47,5.79
				c0.54,1.37,1.58,2.58,2.94,3.14c4.74,1.95,10.24-3.38,9.05-8.15C221.95,177.3,221.9,177.13,221.84,176.96z"/>
			<path class="st11" d="M222,177.48c-0.04-0.18-0.1-0.35-0.16-0.52c-0.76-2.17-2.8-4-5.19-3.81c-2.38,0.19-4.94,1.48-6.18,3.56
				c-1.02,1.72-1.2,3.92-0.47,5.79c0.54,1.37,1.58,2.58,2.94,3.14C217.69,187.58,223.19,182.25,222,177.48z M212.72,182.24
				c-0.75-0.31-1.33-0.98-1.63-1.73c-0.4-1.03-0.31-2.25,0.26-3.2c0.68-1.15,2.1-1.86,3.42-1.97c1.33-0.11,2.45,0.91,2.87,2.11
				c0.03,0.1,0.06,0.19,0.09,0.29C218.38,180.37,215.34,183.32,212.72,182.24z"/>
			<g>
				<path class="st11" d="M223.02,168.8c0,0,0.01,0,0.01,0c-0.01,0-0.02,0-0.04,0C223,168.8,223.01,168.8,223.02,168.8z"/>
				<path class="st11" d="M224.79,167.05c-0.23-0.76-0.88-1.35-1.78-1.49c-1.12-0.18-2.69,0.41-3.14,1.53
					c-0.44,1.11,0.47,2.38,1.59,2.79c0.64,0.24,1.37,0.27,2,0.02C224.57,169.46,225.13,168.17,224.79,167.05z"/>
				<path class="st11" d="M223.19,168.76C223.19,168.76,223.2,168.75,223.19,168.76c0,0-0.01,0-0.02,0.01
					C223.18,168.76,223.19,168.76,223.19,168.76z"/>
			</g>
			<path class="st11" d="M152.67,149.59c-0.18-1.44-0.89-2.98-2.2-3.72c-2.24-1.26-5.3-0.05-6.97,1.61
				c-1.1,1.09-1.48,2.31-1.18,3.84c0.28,1.44,0.95,2.85,2.07,3.8c2.12,1.81,5.62,1.3,7.25-0.94
				C152.58,152.89,152.86,151.17,152.67,149.59z"/>
			<path class="st11" d="M152.67,149.59c-0.18-1.44-0.89-2.98-2.2-3.72c-2.24-1.26-5.3-0.05-6.97,1.61
				c-1.1,1.09-1.48,2.31-1.18,3.84c0.28,1.44,0.95,2.85,2.07,3.8c2.12,1.81,5.62,1.3,7.25-0.94
				C152.58,152.89,152.86,151.17,152.67,149.59z M148.87,152.46c-0.99,1.37-3.13,1.68-4.43,0.57c-0.68-0.58-1.09-1.44-1.26-2.32
				c-0.18-0.93,0.05-1.67,0.72-2.34c1.02-1.02,2.89-1.75,4.26-0.99c0.8,0.45,1.24,1.39,1.34,2.27
				C149.62,150.62,149.45,151.67,148.87,152.46z"/>
		</g>
		<path class="st11" d="M183.03,131.5c-0.57-0.67-1.47-0.41-2.06,0.08c-0.69,0.57-1.19,1.37-1.61,2.15
			c-0.02,0.03-0.03,0.06-0.05,0.1c-0.48,0.48-0.94,0.99-1.38,1.52c-0.89,1.07-1.87,1.93-3.05,2.66c-1.17,0.72-2.42,1.3-3.78,1.52
			c-1.41,0.23-2.93,0.04-4.31-0.32c-1.04-0.27-2.18-0.72-3.27-0.53c-0.72,0.13-1.51,0.63-1.72,1.37c-0.37,1.31,1.33,2.46,2.2,3.11
			c1.04,0.77,2.2,1.55,3.47,1.88c2.33,0.61,4.78,0.35,7.03-0.45c2.2-0.79,4.26-2.15,5.78-3.93c0.71-0.83,1.27-1.75,1.77-2.72
			c0.53-1.04,1.03-2.12,1.3-3.27C183.59,133.67,183.74,132.35,183.03,131.5z"/>
		<path class="st11" d="M188.51,126.23c-0.36-0.79-1.37-1.04-2.15-0.82c-0.24,0.07-0.47,0.17-0.68,0.29
			c-0.45,0.06-0.9,0.48-1.14,0.82c-0.41,0.59-0.65,1.41-0.49,2.12c0.08,0.33,0.29,0.68,0.6,0.84c0.38,0.2,0.78,0.23,1.2,0.16
			c0.79-0.13,1.55-0.64,2.07-1.24C188.4,127.82,188.86,126.99,188.51,126.23z"/>
	</g>
</g>
<g id="_x31_" class="st0">
	<g class="st1">
		<g>
			<path class="st13" d="M224.69,167.28c0.05-0.02,0.1-0.05,0.14-0.08c7.75-4.1,12.73-16.46,4.42-22.57
				c-5.94-4.37-12.48-0.37-18.64,1.06c-7.88,1.83-4.23-8.13-4.59-12.26c-0.2-2.25-1.14-4.54-2.98-5.85
				c-7.89-5.59-8.55,10.17-14.6,9.69c-0.48-0.04-0.84-0.44-1.15-0.81c-5.54-6.68-10.68-13.52-20.48-9.36
				c-5.06,2.15-7.56,7.37-5.33,12.49c1.08,2.47,1.8,5.29-0.03,7.59c-3.56,4.49-10.36,4.33-15.34,6.01
				c-2.79,0.95-5.42,2.59-7.36,4.83c-3.58,4.15-4.44,9.81-3.12,15.03c0.68,2.68,1.9,5.25,3.52,7.49c1.77,2.46,4.08,5.04,3.11,8.3
				c-0.52,1.75-1.69,3.21-2.56,4.79c-0.86,1.57-1.6,3.21-1.95,4.98c-0.68,3.4,0.42,6.99,2.63,9.63c4.04,4.83,11.4,6.6,17.38,5.03
				c3.16-0.83,5.97-2.52,8.66-4.32c2.58-1.72,5.21-3.76,8.19-4.71c1.64-0.52,3.4-0.69,5.11-0.5c1.85,0.2,3.48,1.04,5.06,1.97
				c1.63,0.96,3.19,2.04,4.86,2.92c1.73,0.9,3.56,1.63,5.45,2.1c3.26,0.81,6.66,1.02,9.86-0.1c2.72-0.95,5.2-2.85,6.39-5.53
				c0.89-1.99,0.63-4.09,0.22-6.16c-0.35-1.77-1.62-4.83-0.65-6.51c1.59-2.75,6.69-1.34,9.2-2.03c3.11-0.85,4.59-2.03,5.43-5.04
				C227.33,178.91,216.05,171.72,224.69,167.28z"/>
			<path class="st13" d="M224.69,167.28c0.05-0.02,0.1-0.05,0.14-0.08c7.75-4.1,12.73-16.46,4.42-22.57
				c-5.94-4.37-12.48-0.37-18.64,1.06c-7.88,1.83-4.23-8.13-4.59-12.26c-0.2-2.25-1.14-4.54-2.98-5.85
				c-7.89-5.59-8.55,10.17-14.6,9.69c-0.48-0.04-0.84-0.44-1.15-0.81c-5.54-6.68-10.68-13.52-20.48-9.36
				c-3.75,1.59-6.08,4.87-6.14,8.53c0.24-0.58,0.51-1.14,0.84-1.68c1.56-2.56,4.01-4.6,6.88-5.51c2.55-0.81,5.59-0.73,7.76,0.96
				c2.04,1.58,3.09,4.13,4.02,6.46c0.55,1.37,1.36,2.68,2.63,3.47c1.04,0.64,2.26,0.86,3.46,0.72c2.62-0.3,5.05-2.07,6.64-4.11
				c1.52-1.96,2.78-4.2,4.73-5.79c0.83-0.67,1.83-1.24,2.94-1.22c1.04,0.01,2.01,0.56,2.74,1.27c1.12,1.11,1.41,2.69,1.31,4.21
				c-0.12,1.79-0.66,3.54-1.17,5.25c-0.48,1.61-1.05,3.27-1.13,4.96c-0.07,1.33,0.33,2.56,1.62,3.14c0.28,0.12,0.57,0.21,0.87,0.28
				c0.63,0.02,1.26-0.04,1.87-0.13c2.95-0.46,5.73-1.68,8.5-2.74c1.17-0.45,2.36-0.94,3.59-1.19c1.8-0.37,3.68-0.37,5.47,0.03
				c1.69,0.38,3.3,1.15,4.6,2.31c1.34,1.21,2.26,2.83,2.67,4.59c0.44,1.91,0.36,4.02-0.32,5.87c-0.61,1.65-1.68,3.06-3.02,4.19
				c-1.39,1.18-3,2.06-4.66,2.81c-0.85,0.38-1.72,0.73-2.59,1.07c-0.94,0.36-1.92,0.65-2.82,1.1c-1.6,0.8-2.95,2.11-3.22,3.94
				c-0.28,1.91,0.6,3.82,1.63,5.37c1.05,1.57,2.49,2.83,3.76,4.22c1.21,1.32,2.4,2.83,2.72,4.64c0.27,1.53-0.03,3.5-1.26,4.58
				c-1.03,0.9-2.45,0.92-3.73,0.67c-0.88-0.17-1.73-0.46-2.57-0.8c-2.15-0.33-4.11-1.62-6.3-1.73c-2.31-0.11-3.99,1.87-4.52,4.01
				c0.05,1.12,0.49,2.22,0.97,3.2c0.68,1.39,1.51,2.7,2.28,4.04c0.88,1.53,1.65,3.13,1.56,4.95c-0.18,3.83-3.88,6.54-7.38,7.2
				c-3.68,0.69-7.38-0.67-10.35-2.8c-2.03-1.45-3.84-3.29-5.28-5.36c-1.36-1.64-2.77-3.39-4.75-4.2c-2.87-1.19-6.24,0.05-8.83,1.42
				c-2.9,1.54-5.41,3.67-7.98,5.68c-2.55,1.99-5.2,3.91-8.23,5.09c-2.63,1.03-5.61,1.44-8.43,1.16c-2.68-0.27-5.36-1.26-7.19-3.31
				c-1.96-2.21-3.09-5.42-2.46-8.35c0.61-2.85,2.58-5.19,4.42-7.35c1.03-1.21,2.1-2.4,3-3.71c0.93-1.34,1.68-2.92,1.53-4.59
				c-0.12-1.41-0.89-2.66-1.8-3.7c-1.05-1.22-2.3-2.27-3.53-3.3c-1.27-1.08-2.5-2.16-3.53-3.48c-0.94-1.21-1.7-2.54-2.25-3.97
				c-0.59-1.54-0.91-3.16-0.97-4.79c-0.61,2.72-0.53,5.61,0.17,8.38c0.68,2.68,1.9,5.25,3.52,7.49c1.77,2.46,4.08,5.04,3.11,8.3
				c-0.52,1.75-1.69,3.21-2.56,4.79c-0.86,1.57-1.6,3.21-1.95,4.98c-0.68,3.4,0.42,6.99,2.63,9.63c4.04,4.83,11.4,6.6,17.38,5.03
				c3.16-0.83,5.97-2.52,8.66-4.32c2.58-1.72,5.21-3.76,8.19-4.71c1.64-0.52,3.4-0.69,5.11-0.5c1.85,0.2,3.48,1.04,5.06,1.97
				c1.63,0.96,3.19,2.04,4.86,2.92c1.73,0.9,3.56,1.63,5.45,2.1c3.26,0.81,6.66,1.02,9.86-0.1c2.72-0.95,5.2-2.85,6.39-5.53
				c0.89-1.99,0.63-4.09,0.22-6.16c-0.35-1.77-1.62-4.83-0.65-6.51c1.59-2.75,6.69-1.34,9.2-2.03c3.11-0.85,4.59-2.03,5.43-5.04
				C227.33,178.91,216.05,171.72,224.69,167.28z"/>
			<path class="st13" d="M222.64,131.01c-0.34-1.83-1.67-3.34-4.11-3.76c-3.44-0.6-6.19,2.02-7.63,4.9
				c-0.58,1.17-0.85,2.55-0.43,3.79c0.84,2.49,3.97,3.51,6.35,3.1c1.83-0.31,3.38-1.45,4.47-2.92
				C222.47,134.52,222.95,132.64,222.64,131.01z"/>
			<path class="st13" d="M233.12,170.98c-0.74-0.53-1.69-0.84-2.72-0.88c-3.41-0.11-5.16,3.83-2.94,6.44c2.17,2.55,6.16,1.51,7-1.62
				C234.92,173.21,234.29,171.82,233.12,170.98z"/>
			<path class="st13" d="M239,164.29c0.17-0.46,0.19-0.91-0.08-1.24c-0.11-0.13-0.28-0.2-0.45-0.24c-1.51-0.41-4.92,1.22-3.04,3.06
				c0.52,0.51,1.37,0.58,2.03,0.28C237.94,165.93,238.7,165.1,239,164.29z"/>
		</g>
		<path class="st12" d="M164.54,148.18c-1.09,0.21-2,1.14-2.73,1.91c-0.32,0.33-0.61,0.68-0.89,1.04c-1.92,1.23-4.07,2.09-6.24,2.76
			c-2.82,0.86-5.74,1.47-8.46,2.6c-2.47,1.02-4.9,2.47-6.55,4.61c-1.6,2.08-2.05,4.8-0.97,7.22c0.84,1.89,3.56,5.44,5.73,2.94
			c0.73-0.85,0.87-2.06,1.05-3.12c0.08-0.48,0.14-0.98,0.32-1.44c0.03-0.09,0.15-0.3,0.29-0.5c0.25-0.38,0.55-0.73,0.87-1.05
			c2.29-2.3,5.76-2.96,8.6-4.33c1.68-0.81,3.29-1.75,4.84-2.79c1.33-0.89,2.7-1.83,3.74-3.06c1.13-1.34,1.84-2.92,2.05-4.67
			C166.31,149.15,165.95,147.91,164.54,148.18z"/>
		<path class="st12" d="M168.46,144.27c0-0.12-0.02-0.25-0.05-0.38c0.01-0.17-0.01-0.33-0.06-0.49c-0.05-0.16-0.12-0.33-0.24-0.45
			c-0.12-0.13-0.26-0.27-0.42-0.36c-0.23-0.12-0.4-0.17-0.66-0.2c-0.24-0.02-0.49,0.05-0.72,0.13c-0.42,0.15-0.74,0.47-1,0.82
			c-0.1,0.14-0.17,0.3-0.24,0.45c-0.04,0.09-0.07,0.19-0.09,0.28c-0.07,0.32-0.12,0.65-0.02,0.98c0.08,0.29,0.27,0.58,0.53,0.73
			c0.04,0.02,0.07,0.03,0.1,0.05c0.21,0.22,0.51,0.35,0.82,0.33c0.4-0.02,0.77-0.18,1.08-0.44c0.19-0.11,0.37-0.24,0.52-0.4
			C168.27,145.06,168.47,144.67,168.46,144.27z"/>
	</g>
</g>
<g id="Layer_1">
	<g>
		<path class="st14" d="M322.32,196.29c2.71-4.1,6.36-7.75,8.69-12.1c0.15-0.32,0.29-0.63,0.43-0.95
			C328.47,187.65,324.51,191.52,322.32,196.29z"/>
		<path class="st14" d="M299.97,255.31c11.27-22.54-39.36-50.66-52.68-29.41c-0.36,0.64-0.65,1.31-0.89,1.99
			c14.38-17.88,60.18,7.58,52.32,29.22C299.18,256.55,299.6,255.96,299.97,255.31z"/>
		<path class="st14" d="M271.32,298.16c-90.88-15.76-226.06-88.27-250.9-174.36c-3.19-15.27-1.43-28.76,4.34-40.05
			c-7.3,11.95-9.84,26.65-6.31,43.54c24.84,86.09,160.02,158.6,250.9,174.36c31.64,4.99,63.4-0.56,72.44-19.92
			C330.72,298.25,300.97,302.84,271.32,298.16z"/>
	</g>
	<path class="st15" d="M346.2,263.61c-0.77-20.62-23.16-39.43-25.4-58.37c-1.09-10.78,7.84-16.42,12.18-24.54
		c12.8-26.89-20.48-57.76-42.7-74.27C230.14,64.43,134.91,33.7,71.88,50c-37.54,9.83-59.26,36.51-51.46,73.79
		c24.84,86.09,160.02,158.6,250.9,174.36C309.84,304.24,348.56,294.69,346.2,263.61z M264.29,257.16
		c-14.55-8.12-22.16-22.11-17.01-31.26c13.33-21.26,63.96,6.87,52.68,29.41C294.81,264.45,278.84,265.28,264.29,257.16z"/>
</g>
</svg>
